solid OpenSCAD_Model
  facet normal 1 -0 0
    outer loop
      vertex 30 0 10
      vertex 30 15 0
      vertex 30 15 10
    endloop
  endfacet
  facet normal 1 0 0
    outer loop
      vertex 30 15 0
      vertex 30 0 10
      vertex 30 0 0
    endloop
  endfacet
  facet normal 0 0 1
    outer loop
      vertex 10 15 10
      vertex 6.25 7.5 10
      vertex 10 0 10
    endloop
  endfacet
  facet normal 0 0 1
    outer loop
      vertex 10 15 10
      vertex 6.24315 7.63066 10
      vertex 6.25 7.5 10
    endloop
  endfacet
  facet normal 0 0 1
    outer loop
      vertex 10 15 10
      vertex 6.22268 7.75989 10
      vertex 6.24315 7.63066 10
    endloop
  endfacet
  facet normal 0 0 1
    outer loop
      vertex 10 15 10
      vertex 6.18882 7.88627 10
      vertex 6.22268 7.75989 10
    endloop
  endfacet
  facet normal 0 0 1
    outer loop
      vertex 10 15 10
      vertex 6.14193 8.00842 10
      vertex 6.18882 7.88627 10
    endloop
  endfacet
  facet normal 0 0 1
    outer loop
      vertex 10 15 10
      vertex 6.08253 8.125 10
      vertex 6.14193 8.00842 10
    endloop
  endfacet
  facet normal 0 0 1
    outer loop
      vertex 10 15 10
      vertex 6.01127 8.23473 10
      vertex 6.08253 8.125 10
    endloop
  endfacet
  facet normal 0 0 1
    outer loop
      vertex 10 15 10
      vertex 5.92893 8.33641 10
      vertex 6.01127 8.23473 10
    endloop
  endfacet
  facet normal 0 0 1
    outer loop
      vertex 10 15 10
      vertex 5.83641 8.42893 10
      vertex 5.92893 8.33641 10
    endloop
  endfacet
  facet normal 0 0 1
    outer loop
      vertex 10 15 10
      vertex 5.73473 8.51127 10
      vertex 5.83641 8.42893 10
    endloop
  endfacet
  facet normal 0 0 1
    outer loop
      vertex 10 15 10
      vertex 5.625 8.58253 10
      vertex 5.73473 8.51127 10
    endloop
  endfacet
  facet normal 0 0 1
    outer loop
      vertex 10 15 10
      vertex 5.50842 8.64193 10
      vertex 5.625 8.58253 10
    endloop
  endfacet
  facet normal 0 0 1
    outer loop
      vertex 10 15 10
      vertex 5.38627 8.68882 10
      vertex 5.50842 8.64193 10
    endloop
  endfacet
  facet normal 0 0 1
    outer loop
      vertex 10 15 10
      vertex 5.25989 8.72268 10
      vertex 5.38627 8.68882 10
    endloop
  endfacet
  facet normal 0 0 1
    outer loop
      vertex 10 15 10
      vertex 5.13066 8.74315 10
      vertex 5.25989 8.72268 10
    endloop
  endfacet
  facet normal 0 0 1
    outer loop
      vertex 10 15 10
      vertex 5 8.75 10
      vertex 5.13066 8.74315 10
    endloop
  endfacet
  facet normal -0 0 1
    outer loop
      vertex 0 15 10
      vertex 5 8.75 10
      vertex 10 15 10
    endloop
  endfacet
  facet normal 0 0 1
    outer loop
      vertex 5 8.75 10
      vertex 0 15 10
      vertex 4.86934 8.74315 10
    endloop
  endfacet
  facet normal 0 0 1
    outer loop
      vertex 4.86934 8.74315 10
      vertex 0 15 10
      vertex 4.74011 8.72268 10
    endloop
  endfacet
  facet normal 0 0 1
    outer loop
      vertex 4.74011 8.72268 10
      vertex 0 15 10
      vertex 4.61373 8.68882 10
    endloop
  endfacet
  facet normal 0 0 1
    outer loop
      vertex 4.61373 8.68882 10
      vertex 0 15 10
      vertex 4.49158 8.64193 10
    endloop
  endfacet
  facet normal 0 0 1
    outer loop
      vertex 4.49158 8.64193 10
      vertex 0 15 10
      vertex 4.375 8.58253 10
    endloop
  endfacet
  facet normal 0 0 1
    outer loop
      vertex 4.375 8.58253 10
      vertex 0 15 10
      vertex 4.26527 8.51127 10
    endloop
  endfacet
  facet normal 0 0 1
    outer loop
      vertex 4.26527 8.51127 10
      vertex 0 15 10
      vertex 4.16359 8.42893 10
    endloop
  endfacet
  facet normal 0 0 1
    outer loop
      vertex 3.75685 7.63066 10
      vertex 0 15 10
      vertex 3.75 7.5 10
    endloop
  endfacet
  facet normal 0 0 1
    outer loop
      vertex 3.77732 7.75989 10
      vertex 0 15 10
      vertex 3.75685 7.63066 10
    endloop
  endfacet
  facet normal 0 0 1
    outer loop
      vertex 3.81118 7.88627 10
      vertex 0 15 10
      vertex 3.77732 7.75989 10
    endloop
  endfacet
  facet normal 0 0 1
    outer loop
      vertex 3.85807 8.00842 10
      vertex 0 15 10
      vertex 3.81118 7.88627 10
    endloop
  endfacet
  facet normal 0 0 1
    outer loop
      vertex 3.91747 8.125 10
      vertex 0 15 10
      vertex 3.85807 8.00842 10
    endloop
  endfacet
  facet normal 0 0 1
    outer loop
      vertex 3.98873 8.23473 10
      vertex 0 15 10
      vertex 3.91747 8.125 10
    endloop
  endfacet
  facet normal 0 0 1
    outer loop
      vertex 4.07107 8.33641 10
      vertex 0 15 10
      vertex 3.98873 8.23473 10
    endloop
  endfacet
  facet normal 0 0 1
    outer loop
      vertex 4.16359 8.42893 10
      vertex 0 15 10
      vertex 4.07107 8.33641 10
    endloop
  endfacet
  facet normal -0 0 1
    outer loop
      vertex 6.24315 7.36934 10
      vertex 10 0 10
      vertex 6.25 7.5 10
    endloop
  endfacet
  facet normal -0 0 1
    outer loop
      vertex 6.22268 7.24011 10
      vertex 10 0 10
      vertex 6.24315 7.36934 10
    endloop
  endfacet
  facet normal -0 0 1
    outer loop
      vertex 6.18882 7.11373 10
      vertex 10 0 10
      vertex 6.22268 7.24011 10
    endloop
  endfacet
  facet normal -0 0 1
    outer loop
      vertex 6.14193 6.99158 10
      vertex 10 0 10
      vertex 6.18882 7.11373 10
    endloop
  endfacet
  facet normal -0 0 1
    outer loop
      vertex 6.08253 6.875 10
      vertex 10 0 10
      vertex 6.14193 6.99158 10
    endloop
  endfacet
  facet normal -0 0 1
    outer loop
      vertex 6.01127 6.76527 10
      vertex 10 0 10
      vertex 6.08253 6.875 10
    endloop
  endfacet
  facet normal -0 0 1
    outer loop
      vertex 5.92893 6.66359 10
      vertex 10 0 10
      vertex 6.01127 6.76527 10
    endloop
  endfacet
  facet normal -0 0 1
    outer loop
      vertex 5.83641 6.57107 10
      vertex 10 0 10
      vertex 5.92893 6.66359 10
    endloop
  endfacet
  facet normal -0 0 1
    outer loop
      vertex 5.73473 6.48873 10
      vertex 10 0 10
      vertex 5.83641 6.57107 10
    endloop
  endfacet
  facet normal -0 0 1
    outer loop
      vertex 5.625 6.41747 10
      vertex 10 0 10
      vertex 5.73473 6.48873 10
    endloop
  endfacet
  facet normal -0 0 1
    outer loop
      vertex 5.50842 6.35807 10
      vertex 10 0 10
      vertex 5.625 6.41747 10
    endloop
  endfacet
  facet normal -0 0 1
    outer loop
      vertex 5.38627 6.31118 10
      vertex 10 0 10
      vertex 5.50842 6.35807 10
    endloop
  endfacet
  facet normal -0 0 1
    outer loop
      vertex 5.25989 6.27732 10
      vertex 10 0 10
      vertex 5.38627 6.31118 10
    endloop
  endfacet
  facet normal -0 0 1
    outer loop
      vertex 5.13066 6.25685 10
      vertex 10 0 10
      vertex 5.25989 6.27732 10
    endloop
  endfacet
  facet normal -0 0 1
    outer loop
      vertex 5 6.25 10
      vertex 10 0 10
      vertex 5.13066 6.25685 10
    endloop
  endfacet
  facet normal 0 0 1
    outer loop
      vertex 0 0 10
      vertex 5 6.25 10
      vertex 4.86934 6.25685 10
    endloop
  endfacet
  facet normal 0 0 1
    outer loop
      vertex 0 0 10
      vertex 4.86934 6.25685 10
      vertex 4.74011 6.27732 10
    endloop
  endfacet
  facet normal 0 0 1
    outer loop
      vertex 0 0 10
      vertex 4.74011 6.27732 10
      vertex 4.61373 6.31118 10
    endloop
  endfacet
  facet normal 0 0 1
    outer loop
      vertex 0 0 10
      vertex 4.61373 6.31118 10
      vertex 4.49158 6.35807 10
    endloop
  endfacet
  facet normal 0 0 1
    outer loop
      vertex 0 0 10
      vertex 4.49158 6.35807 10
      vertex 4.375 6.41747 10
    endloop
  endfacet
  facet normal 0 0 1
    outer loop
      vertex 0 0 10
      vertex 4.375 6.41747 10
      vertex 4.26527 6.48873 10
    endloop
  endfacet
  facet normal 0 0 1
    outer loop
      vertex 0 0 10
      vertex 4.26527 6.48873 10
      vertex 4.16359 6.57107 10
    endloop
  endfacet
  facet normal 0 0 1
    outer loop
      vertex 0 0 10
      vertex 4.16359 6.57107 10
      vertex 4.07107 6.66359 10
    endloop
  endfacet
  facet normal 0 0 1
    outer loop
      vertex 0 0 10
      vertex 3.75 7.5 10
      vertex 0 15 10
    endloop
  endfacet
  facet normal 0 0 1
    outer loop
      vertex 3.75 7.5 10
      vertex 0 0 10
      vertex 3.75685 7.36934 10
    endloop
  endfacet
  facet normal 0 0 1
    outer loop
      vertex 3.75685 7.36934 10
      vertex 0 0 10
      vertex 3.77732 7.24011 10
    endloop
  endfacet
  facet normal 0 0 1
    outer loop
      vertex 3.77732 7.24011 10
      vertex 0 0 10
      vertex 3.81118 7.11373 10
    endloop
  endfacet
  facet normal 0 0 1
    outer loop
      vertex 5 6.25 10
      vertex 0 0 10
      vertex 10 0 10
    endloop
  endfacet
  facet normal 0 0 1
    outer loop
      vertex 3.98873 6.76527 10
      vertex 0 0 10
      vertex 4.07107 6.66359 10
    endloop
  endfacet
  facet normal 0 0 1
    outer loop
      vertex 3.91747 6.875 10
      vertex 0 0 10
      vertex 3.98873 6.76527 10
    endloop
  endfacet
  facet normal 0 0 1
    outer loop
      vertex 3.85807 6.99158 10
      vertex 0 0 10
      vertex 3.91747 6.875 10
    endloop
  endfacet
  facet normal 0 0 1
    outer loop
      vertex 3.81118 7.11373 10
      vertex 0 0 10
      vertex 3.85807 6.99158 10
    endloop
  endfacet
  facet normal 0 0 1
    outer loop
      vertex 30 15 10
      vertex 26.25 7.5 10
      vertex 30 0 10
    endloop
  endfacet
  facet normal 0 0 1
    outer loop
      vertex 30 15 10
      vertex 26.2432 7.63066 10
      vertex 26.25 7.5 10
    endloop
  endfacet
  facet normal 0 0 1
    outer loop
      vertex 30 15 10
      vertex 26.2227 7.75989 10
      vertex 26.2432 7.63066 10
    endloop
  endfacet
  facet normal 0 0 1
    outer loop
      vertex 30 15 10
      vertex 26.1888 7.88627 10
      vertex 26.2227 7.75989 10
    endloop
  endfacet
  facet normal 0 0 1
    outer loop
      vertex 30 15 10
      vertex 26.1419 8.00842 10
      vertex 26.1888 7.88627 10
    endloop
  endfacet
  facet normal 0 0 1
    outer loop
      vertex 30 15 10
      vertex 26.0825 8.125 10
      vertex 26.1419 8.00842 10
    endloop
  endfacet
  facet normal 0 0 1
    outer loop
      vertex 30 15 10
      vertex 26.0113 8.23473 10
      vertex 26.0825 8.125 10
    endloop
  endfacet
  facet normal 0 0 1
    outer loop
      vertex 30 15 10
      vertex 25.9289 8.33641 10
      vertex 26.0113 8.23473 10
    endloop
  endfacet
  facet normal 0 0 1
    outer loop
      vertex 30 15 10
      vertex 25.8364 8.42893 10
      vertex 25.9289 8.33641 10
    endloop
  endfacet
  facet normal 0 0 1
    outer loop
      vertex 30 15 10
      vertex 25.7347 8.51127 10
      vertex 25.8364 8.42893 10
    endloop
  endfacet
  facet normal 0 0 1
    outer loop
      vertex 30 15 10
      vertex 25.625 8.58253 10
      vertex 25.7347 8.51127 10
    endloop
  endfacet
  facet normal 0 0 1
    outer loop
      vertex 30 15 10
      vertex 25.5084 8.64193 10
      vertex 25.625 8.58253 10
    endloop
  endfacet
  facet normal 0 0 1
    outer loop
      vertex 30 15 10
      vertex 25.3863 8.68882 10
      vertex 25.5084 8.64193 10
    endloop
  endfacet
  facet normal 0 0 1
    outer loop
      vertex 30 15 10
      vertex 25.2599 8.72268 10
      vertex 25.3863 8.68882 10
    endloop
  endfacet
  facet normal 0 0 1
    outer loop
      vertex 30 15 10
      vertex 25.1307 8.74315 10
      vertex 25.2599 8.72268 10
    endloop
  endfacet
  facet normal 0 0 1
    outer loop
      vertex 30 15 10
      vertex 25 8.75 10
      vertex 25.1307 8.74315 10
    endloop
  endfacet
  facet normal -0 0 1
    outer loop
      vertex 20 15 10
      vertex 25 8.75 10
      vertex 30 15 10
    endloop
  endfacet
  facet normal 0 0 1
    outer loop
      vertex 25 8.75 10
      vertex 20 15 10
      vertex 24.8693 8.74315 10
    endloop
  endfacet
  facet normal 0 0 1
    outer loop
      vertex 24.8693 8.74315 10
      vertex 20 15 10
      vertex 24.7401 8.72268 10
    endloop
  endfacet
  facet normal 0 0 1
    outer loop
      vertex 24.7401 8.72268 10
      vertex 20 15 10
      vertex 24.6137 8.68882 10
    endloop
  endfacet
  facet normal 0 0 1
    outer loop
      vertex 24.6137 8.68882 10
      vertex 20 15 10
      vertex 24.4916 8.64193 10
    endloop
  endfacet
  facet normal 0 0 1
    outer loop
      vertex 24.4916 8.64193 10
      vertex 20 15 10
      vertex 24.375 8.58253 10
    endloop
  endfacet
  facet normal 0 0 1
    outer loop
      vertex 24.375 8.58253 10
      vertex 20 15 10
      vertex 24.2653 8.51127 10
    endloop
  endfacet
  facet normal 0 0 1
    outer loop
      vertex 24.2653 8.51127 10
      vertex 20 15 10
      vertex 24.1636 8.42893 10
    endloop
  endfacet
  facet normal 0 0 1
    outer loop
      vertex 23.7568 7.63066 10
      vertex 20 15 10
      vertex 23.75 7.5 10
    endloop
  endfacet
  facet normal 0 0 1
    outer loop
      vertex 23.7773 7.75989 10
      vertex 20 15 10
      vertex 23.7568 7.63066 10
    endloop
  endfacet
  facet normal 0 0 1
    outer loop
      vertex 23.8112 7.88627 10
      vertex 20 15 10
      vertex 23.7773 7.75989 10
    endloop
  endfacet
  facet normal 0 0 1
    outer loop
      vertex 23.8581 8.00842 10
      vertex 20 15 10
      vertex 23.8112 7.88627 10
    endloop
  endfacet
  facet normal 0 0 1
    outer loop
      vertex 23.9175 8.125 10
      vertex 20 15 10
      vertex 23.8581 8.00842 10
    endloop
  endfacet
  facet normal 0 0 1
    outer loop
      vertex 23.9887 8.23473 10
      vertex 20 15 10
      vertex 23.9175 8.125 10
    endloop
  endfacet
  facet normal 0 0 1
    outer loop
      vertex 24.0711 8.33641 10
      vertex 20 15 10
      vertex 23.9887 8.23473 10
    endloop
  endfacet
  facet normal 0 0 1
    outer loop
      vertex 24.1636 8.42893 10
      vertex 20 15 10
      vertex 24.0711 8.33641 10
    endloop
  endfacet
  facet normal -0 0 1
    outer loop
      vertex 26.2432 7.36934 10
      vertex 30 0 10
      vertex 26.25 7.5 10
    endloop
  endfacet
  facet normal -0 0 1
    outer loop
      vertex 26.2227 7.24011 10
      vertex 30 0 10
      vertex 26.2432 7.36934 10
    endloop
  endfacet
  facet normal -0 0 1
    outer loop
      vertex 26.1888 7.11373 10
      vertex 30 0 10
      vertex 26.2227 7.24011 10
    endloop
  endfacet
  facet normal -0 0 1
    outer loop
      vertex 26.1419 6.99158 10
      vertex 30 0 10
      vertex 26.1888 7.11373 10
    endloop
  endfacet
  facet normal -0 0 1
    outer loop
      vertex 26.0825 6.875 10
      vertex 30 0 10
      vertex 26.1419 6.99158 10
    endloop
  endfacet
  facet normal -0 0 1
    outer loop
      vertex 26.0113 6.76527 10
      vertex 30 0 10
      vertex 26.0825 6.875 10
    endloop
  endfacet
  facet normal -0 0 1
    outer loop
      vertex 25.9289 6.66359 10
      vertex 30 0 10
      vertex 26.0113 6.76527 10
    endloop
  endfacet
  facet normal -0 0 1
    outer loop
      vertex 25.8364 6.57107 10
      vertex 30 0 10
      vertex 25.9289 6.66359 10
    endloop
  endfacet
  facet normal -0 0 1
    outer loop
      vertex 25.7347 6.48873 10
      vertex 30 0 10
      vertex 25.8364 6.57107 10
    endloop
  endfacet
  facet normal -0 0 1
    outer loop
      vertex 25.625 6.41747 10
      vertex 30 0 10
      vertex 25.7347 6.48873 10
    endloop
  endfacet
  facet normal -0 0 1
    outer loop
      vertex 25.5084 6.35807 10
      vertex 30 0 10
      vertex 25.625 6.41747 10
    endloop
  endfacet
  facet normal -0 0 1
    outer loop
      vertex 25.3863 6.31118 10
      vertex 30 0 10
      vertex 25.5084 6.35807 10
    endloop
  endfacet
  facet normal -0 0 1
    outer loop
      vertex 25.2599 6.27732 10
      vertex 30 0 10
      vertex 25.3863 6.31118 10
    endloop
  endfacet
  facet normal -0 0 1
    outer loop
      vertex 25.1307 6.25685 10
      vertex 30 0 10
      vertex 25.2599 6.27732 10
    endloop
  endfacet
  facet normal -0 0 1
    outer loop
      vertex 25 6.25 10
      vertex 30 0 10
      vertex 25.1307 6.25685 10
    endloop
  endfacet
  facet normal 0 0 1
    outer loop
      vertex 20 0 10
      vertex 25 6.25 10
      vertex 24.8693 6.25685 10
    endloop
  endfacet
  facet normal 0 0 1
    outer loop
      vertex 20 0 10
      vertex 24.8693 6.25685 10
      vertex 24.7401 6.27732 10
    endloop
  endfacet
  facet normal 0 0 1
    outer loop
      vertex 20 0 10
      vertex 24.7401 6.27732 10
      vertex 24.6137 6.31118 10
    endloop
  endfacet
  facet normal 0 0 1
    outer loop
      vertex 20 0 10
      vertex 24.6137 6.31118 10
      vertex 24.4916 6.35807 10
    endloop
  endfacet
  facet normal 0 0 1
    outer loop
      vertex 20 0 10
      vertex 24.4916 6.35807 10
      vertex 24.375 6.41747 10
    endloop
  endfacet
  facet normal 0 0 1
    outer loop
      vertex 20 0 10
      vertex 24.375 6.41747 10
      vertex 24.2653 6.48873 10
    endloop
  endfacet
  facet normal 0 0 1
    outer loop
      vertex 20 0 10
      vertex 24.2653 6.48873 10
      vertex 24.1636 6.57107 10
    endloop
  endfacet
  facet normal 0 0 1
    outer loop
      vertex 20 0 10
      vertex 24.1636 6.57107 10
      vertex 24.0711 6.66359 10
    endloop
  endfacet
  facet normal 0 0 1
    outer loop
      vertex 20 0 10
      vertex 23.75 7.5 10
      vertex 20 15 10
    endloop
  endfacet
  facet normal 0 0 1
    outer loop
      vertex 23.75 7.5 10
      vertex 20 0 10
      vertex 23.7568 7.36934 10
    endloop
  endfacet
  facet normal 0 0 1
    outer loop
      vertex 23.7568 7.36934 10
      vertex 20 0 10
      vertex 23.7773 7.24011 10
    endloop
  endfacet
  facet normal 0 0 1
    outer loop
      vertex 23.7773 7.24011 10
      vertex 20 0 10
      vertex 23.8112 7.11373 10
    endloop
  endfacet
  facet normal 0 0 1
    outer loop
      vertex 25 6.25 10
      vertex 20 0 10
      vertex 30 0 10
    endloop
  endfacet
  facet normal 0 0 1
    outer loop
      vertex 23.9887 6.76527 10
      vertex 20 0 10
      vertex 24.0711 6.66359 10
    endloop
  endfacet
  facet normal 0 0 1
    outer loop
      vertex 23.9175 6.875 10
      vertex 20 0 10
      vertex 23.9887 6.76527 10
    endloop
  endfacet
  facet normal 0 0 1
    outer loop
      vertex 23.8581 6.99158 10
      vertex 20 0 10
      vertex 23.9175 6.875 10
    endloop
  endfacet
  facet normal 0 0 1
    outer loop
      vertex 23.8112 7.11373 10
      vertex 20 0 10
      vertex 23.8581 6.99158 10
    endloop
  endfacet
  facet normal 0 0 -1
    outer loop
      vertex 30 0 0
      vertex 26.25 7.5 0
      vertex 30 15 0
    endloop
  endfacet
  facet normal 0 0 -1
    outer loop
      vertex 30 0 0
      vertex 26.2432 7.36934 0
      vertex 26.25 7.5 0
    endloop
  endfacet
  facet normal 0 0 -1
    outer loop
      vertex 30 0 0
      vertex 26.2227 7.24011 0
      vertex 26.2432 7.36934 0
    endloop
  endfacet
  facet normal 0 0 -1
    outer loop
      vertex 30 0 0
      vertex 26.1888 7.11373 0
      vertex 26.2227 7.24011 0
    endloop
  endfacet
  facet normal 0 0 -1
    outer loop
      vertex 30 0 0
      vertex 26.1419 6.99158 0
      vertex 26.1888 7.11373 0
    endloop
  endfacet
  facet normal 0 0 -1
    outer loop
      vertex 30 0 0
      vertex 26.0825 6.875 0
      vertex 26.1419 6.99158 0
    endloop
  endfacet
  facet normal 0 0 -1
    outer loop
      vertex 30 0 0
      vertex 26.0113 6.76527 0
      vertex 26.0825 6.875 0
    endloop
  endfacet
  facet normal 0 0 -1
    outer loop
      vertex 30 0 0
      vertex 25.9289 6.66359 0
      vertex 26.0113 6.76527 0
    endloop
  endfacet
  facet normal 0 0 -1
    outer loop
      vertex 30 0 0
      vertex 25.8364 6.57107 0
      vertex 25.9289 6.66359 0
    endloop
  endfacet
  facet normal 0 0 -1
    outer loop
      vertex 30 0 0
      vertex 25.7347 6.48873 0
      vertex 25.8364 6.57107 0
    endloop
  endfacet
  facet normal 0 0 -1
    outer loop
      vertex 30 0 0
      vertex 25.625 6.41747 0
      vertex 25.7347 6.48873 0
    endloop
  endfacet
  facet normal 0 0 -1
    outer loop
      vertex 30 0 0
      vertex 25.5084 6.35807 0
      vertex 25.625 6.41747 0
    endloop
  endfacet
  facet normal 0 0 -1
    outer loop
      vertex 30 0 0
      vertex 25.3863 6.31118 0
      vertex 25.5084 6.35807 0
    endloop
  endfacet
  facet normal 0 0 -1
    outer loop
      vertex 30 0 0
      vertex 25.2599 6.27732 0
      vertex 25.3863 6.31118 0
    endloop
  endfacet
  facet normal 0 0 -1
    outer loop
      vertex 30 0 0
      vertex 25.1307 6.25685 0
      vertex 25.2599 6.27732 0
    endloop
  endfacet
  facet normal 0 0 -1
    outer loop
      vertex 30 0 0
      vertex 25 6.25 0
      vertex 25.1307 6.25685 0
    endloop
  endfacet
  facet normal 0 0 -1
    outer loop
      vertex 30 0 0
      vertex 24.8693 6.25685 0
      vertex 25 6.25 0
    endloop
  endfacet
  facet normal 0 0 -1
    outer loop
      vertex 30 0 0
      vertex 24.7401 6.27732 0
      vertex 24.8693 6.25685 0
    endloop
  endfacet
  facet normal 0 0 -1
    outer loop
      vertex 30 0 0
      vertex 24.6137 6.31118 0
      vertex 24.7401 6.27732 0
    endloop
  endfacet
  facet normal 0 0 -1
    outer loop
      vertex 30 0 0
      vertex 24.4916 6.35807 0
      vertex 24.6137 6.31118 0
    endloop
  endfacet
  facet normal 0 0 -1
    outer loop
      vertex 30 0 0
      vertex 24.375 6.41747 0
      vertex 24.4916 6.35807 0
    endloop
  endfacet
  facet normal 0 0 -1
    outer loop
      vertex 30 0 0
      vertex 24.2653 6.48873 0
      vertex 24.375 6.41747 0
    endloop
  endfacet
  facet normal 0 0 -1
    outer loop
      vertex 5.73473 6.48873 0
      vertex 24.2653 6.48873 0
      vertex 30 0 0
    endloop
  endfacet
  facet normal 0 0 -1
    outer loop
      vertex 24.2653 6.48873 0
      vertex 5.73473 6.48873 0
      vertex 24.1636 6.57107 0
    endloop
  endfacet
  facet normal 0 0 -1
    outer loop
      vertex 23.7568 7.36934 0
      vertex 6.25 7.5 0
      vertex 23.75 7.5 0
    endloop
  endfacet
  facet normal 0 0 -1
    outer loop
      vertex 6.24315 7.36934 0
      vertex 23.7568 7.36934 0
      vertex 23.7773 7.24011 0
    endloop
  endfacet
  facet normal 0 0 -1
    outer loop
      vertex 6.22268 7.24011 0
      vertex 23.7773 7.24011 0
      vertex 23.8112 7.11373 0
    endloop
  endfacet
  facet normal 0 0 -1
    outer loop
      vertex 6.18882 7.11373 0
      vertex 23.8112 7.11373 0
      vertex 23.8581 6.99158 0
    endloop
  endfacet
  facet normal 0 0 -1
    outer loop
      vertex 6.14193 6.99158 0
      vertex 23.8581 6.99158 0
      vertex 23.9175 6.875 0
    endloop
  endfacet
  facet normal 0 0 -1
    outer loop
      vertex 6.08253 6.875 0
      vertex 23.9175 6.875 0
      vertex 23.9887 6.76527 0
    endloop
  endfacet
  facet normal 0 0 -1
    outer loop
      vertex 6.01127 6.76527 0
      vertex 23.9887 6.76527 0
      vertex 24.0711 6.66359 0
    endloop
  endfacet
  facet normal 0 -0 -1
    outer loop
      vertex 5.83641 6.57107 0
      vertex 24.1636 6.57107 0
      vertex 5.73473 6.48873 0
    endloop
  endfacet
  facet normal 0 0 -1
    outer loop
      vertex 23.7568 7.36934 0
      vertex 6.24315 7.36934 0
      vertex 6.25 7.5 0
    endloop
  endfacet
  facet normal 0 0 -1
    outer loop
      vertex 23.7773 7.24011 0
      vertex 6.22268 7.24011 0
      vertex 6.24315 7.36934 0
    endloop
  endfacet
  facet normal 0 0 -1
    outer loop
      vertex 23.8112 7.11373 0
      vertex 6.18882 7.11373 0
      vertex 6.22268 7.24011 0
    endloop
  endfacet
  facet normal 0 0 -1
    outer loop
      vertex 23.8581 6.99158 0
      vertex 6.14193 6.99158 0
      vertex 6.18882 7.11373 0
    endloop
  endfacet
  facet normal 0 0 -1
    outer loop
      vertex 23.9175 6.875 0
      vertex 6.08253 6.875 0
      vertex 6.14193 6.99158 0
    endloop
  endfacet
  facet normal 0 0 -1
    outer loop
      vertex 23.9887 6.76527 0
      vertex 6.01127 6.76527 0
      vertex 6.08253 6.875 0
    endloop
  endfacet
  facet normal 0 0 -1
    outer loop
      vertex 24.0711 6.66359 0
      vertex 5.92893 6.66359 0
      vertex 6.01127 6.76527 0
    endloop
  endfacet
  facet normal -0 0 -1
    outer loop
      vertex 24.0711 6.66359 0
      vertex 5.83641 6.57107 0
      vertex 5.92893 6.66359 0
    endloop
  endfacet
  facet normal 0 0 -1
    outer loop
      vertex 24.1636 6.57107 0
      vertex 5.83641 6.57107 0
      vertex 24.0711 6.66359 0
    endloop
  endfacet
  facet normal 0 0 -1
    outer loop
      vertex 0 0 0
      vertex 5.73473 6.48873 0
      vertex 30 0 0
    endloop
  endfacet
  facet normal 0 0 -1
    outer loop
      vertex 5.73473 6.48873 0
      vertex 0 0 0
      vertex 5.625 6.41747 0
    endloop
  endfacet
  facet normal 0 0 -1
    outer loop
      vertex 5.625 6.41747 0
      vertex 0 0 0
      vertex 5.50842 6.35807 0
    endloop
  endfacet
  facet normal 0 0 -1
    outer loop
      vertex 5.50842 6.35807 0
      vertex 0 0 0
      vertex 5.38627 6.31118 0
    endloop
  endfacet
  facet normal 0 0 -1
    outer loop
      vertex 5.38627 6.31118 0
      vertex 0 0 0
      vertex 5.25989 6.27732 0
    endloop
  endfacet
  facet normal 0 0 -1
    outer loop
      vertex 5.25989 6.27732 0
      vertex 0 0 0
      vertex 5.13066 6.25685 0
    endloop
  endfacet
  facet normal 0 0 -1
    outer loop
      vertex 5.13066 6.25685 0
      vertex 0 0 0
      vertex 5 6.25 0
    endloop
  endfacet
  facet normal -0 0 -1
    outer loop
      vertex 5 6.25 0
      vertex 0 0 0
      vertex 4.86934 6.25685 0
    endloop
  endfacet
  facet normal -0 0 -1
    outer loop
      vertex 3.75685 7.36934 0
      vertex 0 0 0
      vertex 3.75 7.5 0
    endloop
  endfacet
  facet normal -0 0 -1
    outer loop
      vertex 3.77732 7.24011 0
      vertex 0 0 0
      vertex 3.75685 7.36934 0
    endloop
  endfacet
  facet normal -0 0 -1
    outer loop
      vertex 3.81118 7.11373 0
      vertex 0 0 0
      vertex 3.77732 7.24011 0
    endloop
  endfacet
  facet normal -0 0 -1
    outer loop
      vertex 3.85807 6.99158 0
      vertex 0 0 0
      vertex 3.81118 7.11373 0
    endloop
  endfacet
  facet normal -0 0 -1
    outer loop
      vertex 3.91747 6.875 0
      vertex 0 0 0
      vertex 3.85807 6.99158 0
    endloop
  endfacet
  facet normal -0 0 -1
    outer loop
      vertex 3.98873 6.76527 0
      vertex 0 0 0
      vertex 3.91747 6.875 0
    endloop
  endfacet
  facet normal -0 0 -1
    outer loop
      vertex 4.07107 6.66359 0
      vertex 0 0 0
      vertex 3.98873 6.76527 0
    endloop
  endfacet
  facet normal -0 0 -1
    outer loop
      vertex 4.16359 6.57107 0
      vertex 0 0 0
      vertex 4.07107 6.66359 0
    endloop
  endfacet
  facet normal -0 0 -1
    outer loop
      vertex 4.26527 6.48873 0
      vertex 0 0 0
      vertex 4.16359 6.57107 0
    endloop
  endfacet
  facet normal -0 0 -1
    outer loop
      vertex 4.375 6.41747 0
      vertex 0 0 0
      vertex 4.26527 6.48873 0
    endloop
  endfacet
  facet normal -0 0 -1
    outer loop
      vertex 4.49158 6.35807 0
      vertex 0 0 0
      vertex 4.375 6.41747 0
    endloop
  endfacet
  facet normal -0 0 -1
    outer loop
      vertex 4.61373 6.31118 0
      vertex 0 0 0
      vertex 4.49158 6.35807 0
    endloop
  endfacet
  facet normal -0 0 -1
    outer loop
      vertex 4.74011 6.27732 0
      vertex 0 0 0
      vertex 4.61373 6.31118 0
    endloop
  endfacet
  facet normal -0 0 -1
    outer loop
      vertex 4.86934 6.25685 0
      vertex 0 0 0
      vertex 4.74011 6.27732 0
    endloop
  endfacet
  facet normal 0 0 -1
    outer loop
      vertex 26.2432 7.63066 0
      vertex 30 15 0
      vertex 26.25 7.5 0
    endloop
  endfacet
  facet normal 0 0 -1
    outer loop
      vertex 26.2227 7.75989 0
      vertex 30 15 0
      vertex 26.2432 7.63066 0
    endloop
  endfacet
  facet normal 0 0 -1
    outer loop
      vertex 26.1888 7.88627 0
      vertex 30 15 0
      vertex 26.2227 7.75989 0
    endloop
  endfacet
  facet normal 0 0 -1
    outer loop
      vertex 26.1419 8.00842 0
      vertex 30 15 0
      vertex 26.1888 7.88627 0
    endloop
  endfacet
  facet normal 0 0 -1
    outer loop
      vertex 26.0825 8.125 0
      vertex 30 15 0
      vertex 26.1419 8.00842 0
    endloop
  endfacet
  facet normal 0 0 -1
    outer loop
      vertex 26.0113 8.23473 0
      vertex 30 15 0
      vertex 26.0825 8.125 0
    endloop
  endfacet
  facet normal 0 0 -1
    outer loop
      vertex 25.9289 8.33641 0
      vertex 30 15 0
      vertex 26.0113 8.23473 0
    endloop
  endfacet
  facet normal 0 0 -1
    outer loop
      vertex 25.8364 8.42893 0
      vertex 30 15 0
      vertex 25.9289 8.33641 0
    endloop
  endfacet
  facet normal 0 0 -1
    outer loop
      vertex 25.7347 8.51127 0
      vertex 30 15 0
      vertex 25.8364 8.42893 0
    endloop
  endfacet
  facet normal 0 0 -1
    outer loop
      vertex 25.625 8.58253 0
      vertex 30 15 0
      vertex 25.7347 8.51127 0
    endloop
  endfacet
  facet normal 0 0 -1
    outer loop
      vertex 25.5084 8.64193 0
      vertex 30 15 0
      vertex 25.625 8.58253 0
    endloop
  endfacet
  facet normal 0 0 -1
    outer loop
      vertex 25.3863 8.68882 0
      vertex 30 15 0
      vertex 25.5084 8.64193 0
    endloop
  endfacet
  facet normal 0 0 -1
    outer loop
      vertex 25.2599 8.72268 0
      vertex 30 15 0
      vertex 25.3863 8.68882 0
    endloop
  endfacet
  facet normal 0 0 -1
    outer loop
      vertex 25.1307 8.74315 0
      vertex 30 15 0
      vertex 25.2599 8.72268 0
    endloop
  endfacet
  facet normal 0 0 -1
    outer loop
      vertex 25 8.75 0
      vertex 30 15 0
      vertex 25.1307 8.74315 0
    endloop
  endfacet
  facet normal 0 0 -1
    outer loop
      vertex 24.8693 8.74315 0
      vertex 30 15 0
      vertex 25 8.75 0
    endloop
  endfacet
  facet normal 0 0 -1
    outer loop
      vertex 24.7401 8.72268 0
      vertex 30 15 0
      vertex 24.8693 8.74315 0
    endloop
  endfacet
  facet normal 0 0 -1
    outer loop
      vertex 24.6137 8.68882 0
      vertex 30 15 0
      vertex 24.7401 8.72268 0
    endloop
  endfacet
  facet normal 0 0 -1
    outer loop
      vertex 24.4916 8.64193 0
      vertex 30 15 0
      vertex 24.6137 8.68882 0
    endloop
  endfacet
  facet normal 0 0 -1
    outer loop
      vertex 24.375 8.58253 0
      vertex 30 15 0
      vertex 24.4916 8.64193 0
    endloop
  endfacet
  facet normal 0 0 -1
    outer loop
      vertex 24.2653 8.51127 0
      vertex 30 15 0
      vertex 24.375 8.58253 0
    endloop
  endfacet
  facet normal 0 0 -1
    outer loop
      vertex 5.73473 8.51127 0
      vertex 24.2653 8.51127 0
      vertex 24.1636 8.42893 0
    endloop
  endfacet
  facet normal 0 0 -1
    outer loop
      vertex 5.83641 8.42893 0
      vertex 24.1636 8.42893 0
      vertex 24.0711 8.33641 0
    endloop
  endfacet
  facet normal 0 0 -1
    outer loop
      vertex 6.25 7.5 0
      vertex 23.7568 7.63066 0
      vertex 23.75 7.5 0
    endloop
  endfacet
  facet normal 0 0 -1
    outer loop
      vertex 6.24315 7.63066 0
      vertex 23.7568 7.63066 0
      vertex 6.25 7.5 0
    endloop
  endfacet
  facet normal 0 0 -1
    outer loop
      vertex 23.7568 7.63066 0
      vertex 6.24315 7.63066 0
      vertex 23.7773 7.75989 0
    endloop
  endfacet
  facet normal 0 0 -1
    outer loop
      vertex 6.22268 7.75989 0
      vertex 23.7773 7.75989 0
      vertex 6.24315 7.63066 0
    endloop
  endfacet
  facet normal 0 0 -1
    outer loop
      vertex 23.7773 7.75989 0
      vertex 6.22268 7.75989 0
      vertex 23.8112 7.88627 0
    endloop
  endfacet
  facet normal 0 0 -1
    outer loop
      vertex 6.18882 7.88627 0
      vertex 23.8112 7.88627 0
      vertex 6.22268 7.75989 0
    endloop
  endfacet
  facet normal 0 0 -1
    outer loop
      vertex 23.8112 7.88627 0
      vertex 6.18882 7.88627 0
      vertex 23.8581 8.00842 0
    endloop
  endfacet
  facet normal 0 0 -1
    outer loop
      vertex 6.14193 8.00842 0
      vertex 23.8581 8.00842 0
      vertex 6.18882 7.88627 0
    endloop
  endfacet
  facet normal 0 0 -1
    outer loop
      vertex 23.8581 8.00842 0
      vertex 6.14193 8.00842 0
      vertex 23.9175 8.125 0
    endloop
  endfacet
  facet normal 0 0 -1
    outer loop
      vertex 6.08253 8.125 0
      vertex 23.9175 8.125 0
      vertex 6.14193 8.00842 0
    endloop
  endfacet
  facet normal 0 0 -1
    outer loop
      vertex 23.9175 8.125 0
      vertex 6.08253 8.125 0
      vertex 23.9887 8.23473 0
    endloop
  endfacet
  facet normal 0 0 -1
    outer loop
      vertex 6.01127 8.23473 0
      vertex 23.9887 8.23473 0
      vertex 6.08253 8.125 0
    endloop
  endfacet
  facet normal 0 0 -1
    outer loop
      vertex 23.9887 8.23473 0
      vertex 6.01127 8.23473 0
      vertex 24.0711 8.33641 0
    endloop
  endfacet
  facet normal 0 0 -1
    outer loop
      vertex 5.92893 8.33641 0
      vertex 24.0711 8.33641 0
      vertex 6.01127 8.23473 0
    endloop
  endfacet
  facet normal 0 0 -1
    outer loop
      vertex 5.83641 8.42893 0
      vertex 24.0711 8.33641 0
      vertex 5.92893 8.33641 0
    endloop
  endfacet
  facet normal 0 0 -1
    outer loop
      vertex 24.1636 8.42893 0
      vertex 5.83641 8.42893 0
      vertex 5.73473 8.51127 0
    endloop
  endfacet
  facet normal 0 0 -1
    outer loop
      vertex 24.2653 8.51127 0
      vertex 5.73473 8.51127 0
      vertex 30 15 0
    endloop
  endfacet
  facet normal 0 0 -1
    outer loop
      vertex 0 15 0
      vertex 5.73473 8.51127 0
      vertex 5.625 8.58253 0
    endloop
  endfacet
  facet normal 0 0 -1
    outer loop
      vertex 0 15 0
      vertex 5.625 8.58253 0
      vertex 5.50842 8.64193 0
    endloop
  endfacet
  facet normal 0 0 -1
    outer loop
      vertex 0 15 0
      vertex 5.50842 8.64193 0
      vertex 5.38627 8.68882 0
    endloop
  endfacet
  facet normal 0 0 -1
    outer loop
      vertex 0 15 0
      vertex 5.38627 8.68882 0
      vertex 5.25989 8.72268 0
    endloop
  endfacet
  facet normal 0 0 -1
    outer loop
      vertex 0 15 0
      vertex 5.25989 8.72268 0
      vertex 5.13066 8.74315 0
    endloop
  endfacet
  facet normal 0 0 -1
    outer loop
      vertex 0 15 0
      vertex 5.13066 8.74315 0
      vertex 5 8.75 0
    endloop
  endfacet
  facet normal 0 0 -1
    outer loop
      vertex 0 15 0
      vertex 5 8.75 0
      vertex 4.86934 8.74315 0
    endloop
  endfacet
  facet normal 0 0 -1
    outer loop
      vertex 0 15 0
      vertex 4.86934 8.74315 0
      vertex 4.74011 8.72268 0
    endloop
  endfacet
  facet normal 0 0 -1
    outer loop
      vertex 0 15 0
      vertex 3.75 7.5 0
      vertex 0 0 0
    endloop
  endfacet
  facet normal 0 0 -1
    outer loop
      vertex 3.75 7.5 0
      vertex 0 15 0
      vertex 3.75685 7.63066 0
    endloop
  endfacet
  facet normal 0 0 -1
    outer loop
      vertex 3.75685 7.63066 0
      vertex 0 15 0
      vertex 3.77732 7.75989 0
    endloop
  endfacet
  facet normal 0 0 -1
    outer loop
      vertex 3.77732 7.75989 0
      vertex 0 15 0
      vertex 3.81118 7.88627 0
    endloop
  endfacet
  facet normal 0 0 -1
    outer loop
      vertex 5.73473 8.51127 0
      vertex 0 15 0
      vertex 30 15 0
    endloop
  endfacet
  facet normal 0 0 -1
    outer loop
      vertex 4.61373 8.68882 0
      vertex 0 15 0
      vertex 4.74011 8.72268 0
    endloop
  endfacet
  facet normal 0 0 -1
    outer loop
      vertex 4.49158 8.64193 0
      vertex 0 15 0
      vertex 4.61373 8.68882 0
    endloop
  endfacet
  facet normal 0 0 -1
    outer loop
      vertex 4.375 8.58253 0
      vertex 0 15 0
      vertex 4.49158 8.64193 0
    endloop
  endfacet
  facet normal 0 0 -1
    outer loop
      vertex 4.26527 8.51127 0
      vertex 0 15 0
      vertex 4.375 8.58253 0
    endloop
  endfacet
  facet normal 0 0 -1
    outer loop
      vertex 4.16359 8.42893 0
      vertex 0 15 0
      vertex 4.26527 8.51127 0
    endloop
  endfacet
  facet normal 0 0 -1
    outer loop
      vertex 4.07107 8.33641 0
      vertex 0 15 0
      vertex 4.16359 8.42893 0
    endloop
  endfacet
  facet normal 0 0 -1
    outer loop
      vertex 3.98873 8.23473 0
      vertex 0 15 0
      vertex 4.07107 8.33641 0
    endloop
  endfacet
  facet normal 0 0 -1
    outer loop
      vertex 3.91747 8.125 0
      vertex 0 15 0
      vertex 3.98873 8.23473 0
    endloop
  endfacet
  facet normal 0 0 -1
    outer loop
      vertex 3.85807 8.00842 0
      vertex 0 15 0
      vertex 3.91747 8.125 0
    endloop
  endfacet
  facet normal 0 0 -1
    outer loop
      vertex 3.81118 7.88627 0
      vertex 0 15 0
      vertex 3.85807 8.00842 0
    endloop
  endfacet
  facet normal -1 0 0
    outer loop
      vertex 0 0 0
      vertex 0 15 10
      vertex 0 15 0
    endloop
  endfacet
  facet normal -1 -0 0
    outer loop
      vertex 0 15 10
      vertex 0 0 0
      vertex 0 0 10
    endloop
  endfacet
  facet normal 0 1 0
    outer loop
      vertex 30 15 10
      vertex 20 15 5
      vertex 20 15 10
    endloop
  endfacet
  facet normal 0 1 0
    outer loop
      vertex 20 15 5
      vertex 30 15 0
      vertex 10 15 5
    endloop
  endfacet
  facet normal 0 1 -0
    outer loop
      vertex 30 15 0
      vertex 20 15 5
      vertex 30 15 10
    endloop
  endfacet
  facet normal 0 1 -0
    outer loop
      vertex 10 15 5
      vertex 0 15 10
      vertex 10 15 10
    endloop
  endfacet
  facet normal 0 1 0
    outer loop
      vertex 10 15 5
      vertex 0 15 0
      vertex 0 15 10
    endloop
  endfacet
  facet normal 0 1 0
    outer loop
      vertex 0 15 0
      vertex 10 15 5
      vertex 30 15 0
    endloop
  endfacet
  facet normal 0 -1 0
    outer loop
      vertex 0 0 10
      vertex 10 0 5
      vertex 10 0 10
    endloop
  endfacet
  facet normal 0 -1 -0
    outer loop
      vertex 10 0 5
      vertex 0 0 0
      vertex 20 0 5
    endloop
  endfacet
  facet normal 0 -1 0
    outer loop
      vertex 0 0 0
      vertex 10 0 5
      vertex 0 0 10
    endloop
  endfacet
  facet normal 0 -1 0
    outer loop
      vertex 20 0 5
      vertex 30 0 10
      vertex 20 0 10
    endloop
  endfacet
  facet normal 0 -1 0
    outer loop
      vertex 20 0 5
      vertex 30 0 0
      vertex 30 0 10
    endloop
  endfacet
  facet normal 0 -1 0
    outer loop
      vertex 30 0 0
      vertex 20 0 5
      vertex 0 0 0
    endloop
  endfacet
  facet normal -0.987686 -0.156449 0
    outer loop
      vertex 6.24315 7.63066 0
      vertex 6.22268 7.75989 10
      vertex 6.22268 7.75989 0
    endloop
  endfacet
  facet normal -0.987686 -0.156449 0
    outer loop
      vertex 6.22268 7.75989 10
      vertex 6.24315 7.63066 0
      vertex 6.24315 7.63066 10
    endloop
  endfacet
  facet normal -0.998629 -0.0523542 0
    outer loop
      vertex 6.25 7.5 0
      vertex 6.24315 7.63066 10
      vertex 6.24315 7.63066 0
    endloop
  endfacet
  facet normal -0.998629 -0.0523542 0
    outer loop
      vertex 6.24315 7.63066 10
      vertex 6.25 7.5 0
      vertex 6.25 7.5 10
    endloop
  endfacet
  facet normal -0.965932 -0.258795 0
    outer loop
      vertex 6.22268 7.75989 0
      vertex 6.18882 7.88627 10
      vertex 6.18882 7.88627 0
    endloop
  endfacet
  facet normal -0.965932 -0.258795 0
    outer loop
      vertex 6.18882 7.88627 10
      vertex 6.22268 7.75989 0
      vertex 6.22268 7.75989 10
    endloop
  endfacet
  facet normal -0.933578 -0.358375 0
    outer loop
      vertex 6.18882 7.88627 0
      vertex 6.14193 8.00842 10
      vertex 6.14193 8.00842 0
    endloop
  endfacet
  facet normal -0.933578 -0.358375 0
    outer loop
      vertex 6.14193 8.00842 10
      vertex 6.18882 7.88627 0
      vertex 6.18882 7.88627 10
    endloop
  endfacet
  facet normal -0.933578 0.358375 0
    outer loop
      vertex 6.14193 6.99158 0
      vertex 6.18882 7.11373 10
      vertex 6.18882 7.11373 0
    endloop
  endfacet
  facet normal -0.933578 0.358375 0
    outer loop
      vertex 6.18882 7.11373 10
      vertex 6.14193 6.99158 0
      vertex 6.14193 6.99158 10
    endloop
  endfacet
  facet normal -0.453988 -0.891008 0
    outer loop
      vertex 5.50842 8.64193 0
      vertex 5.625 8.58253 10
      vertex 5.50842 8.64193 10
    endloop
  endfacet
  facet normal -0.453988 -0.891008 -0
    outer loop
      vertex 5.625 8.58253 10
      vertex 5.50842 8.64193 0
      vertex 5.625 8.58253 0
    endloop
  endfacet
  facet normal 0.998629 -0.0523542 0
    outer loop
      vertex 3.75 7.5 10
      vertex 3.75685 7.63066 0
      vertex 3.75685 7.63066 10
    endloop
  endfacet
  facet normal 0.998629 -0.0523542 0
    outer loop
      vertex 3.75685 7.63066 0
      vertex 3.75 7.5 10
      vertex 3.75 7.5 0
    endloop
  endfacet
  facet normal 0.358375 -0.933578 0
    outer loop
      vertex 4.49158 8.64193 0
      vertex 4.61373 8.68882 10
      vertex 4.49158 8.64193 10
    endloop
  endfacet
  facet normal 0.358375 -0.933578 0
    outer loop
      vertex 4.61373 8.68882 10
      vertex 4.49158 8.64193 0
      vertex 4.61373 8.68882 0
    endloop
  endfacet
  facet normal 0.358375 0.933578 -0
    outer loop
      vertex 4.61373 6.31118 0
      vertex 4.49158 6.35807 10
      vertex 4.61373 6.31118 10
    endloop
  endfacet
  facet normal 0.358375 0.933578 0
    outer loop
      vertex 4.49158 6.35807 10
      vertex 4.61373 6.31118 0
      vertex 4.49158 6.35807 0
    endloop
  endfacet
  facet normal -0.0523542 -0.998629 0
    outer loop
      vertex 5 8.75 0
      vertex 5.13066 8.74315 10
      vertex 5 8.75 10
    endloop
  endfacet
  facet normal -0.0523542 -0.998629 -0
    outer loop
      vertex 5.13066 8.74315 10
      vertex 5 8.75 0
      vertex 5.13066 8.74315 0
    endloop
  endfacet
  facet normal -0.453988 0.891008 0
    outer loop
      vertex 5.625 6.41747 0
      vertex 5.50842 6.35807 10
      vertex 5.625 6.41747 10
    endloop
  endfacet
  facet normal -0.453988 0.891008 0
    outer loop
      vertex 5.50842 6.35807 10
      vertex 5.625 6.41747 0
      vertex 5.50842 6.35807 0
    endloop
  endfacet
  facet normal 0.891008 0.453988 0
    outer loop
      vertex 3.91747 6.875 10
      vertex 3.85807 6.99158 0
      vertex 3.85807 6.99158 10
    endloop
  endfacet
  facet normal 0.891008 0.453988 0
    outer loop
      vertex 3.85807 6.99158 0
      vertex 3.91747 6.875 10
      vertex 3.91747 6.875 0
    endloop
  endfacet
  facet normal -0.358375 -0.933578 0
    outer loop
      vertex 5.38627 8.68882 0
      vertex 5.50842 8.64193 10
      vertex 5.38627 8.68882 10
    endloop
  endfacet
  facet normal -0.358375 -0.933578 -0
    outer loop
      vertex 5.50842 8.64193 10
      vertex 5.38627 8.68882 0
      vertex 5.50842 8.64193 0
    endloop
  endfacet
  facet normal 0.0523542 -0.998629 0
    outer loop
      vertex 4.86934 8.74315 0
      vertex 5 8.75 10
      vertex 4.86934 8.74315 10
    endloop
  endfacet
  facet normal 0.0523542 -0.998629 0
    outer loop
      vertex 5 8.75 10
      vertex 4.86934 8.74315 0
      vertex 5 8.75 0
    endloop
  endfacet
  facet normal -0.891008 0.453988 0
    outer loop
      vertex 6.08253 6.875 0
      vertex 6.14193 6.99158 10
      vertex 6.14193 6.99158 0
    endloop
  endfacet
  facet normal -0.891008 0.453988 0
    outer loop
      vertex 6.14193 6.99158 10
      vertex 6.08253 6.875 0
      vertex 6.08253 6.875 10
    endloop
  endfacet
  facet normal -0.0523542 0.998629 0
    outer loop
      vertex 5.13066 6.25685 0
      vertex 5 6.25 10
      vertex 5.13066 6.25685 10
    endloop
  endfacet
  facet normal -0.0523542 0.998629 0
    outer loop
      vertex 5 6.25 10
      vertex 5.13066 6.25685 0
      vertex 5 6.25 0
    endloop
  endfacet
  facet normal -0.544642 -0.838669 0
    outer loop
      vertex 5.625 8.58253 0
      vertex 5.73473 8.51127 10
      vertex 5.625 8.58253 10
    endloop
  endfacet
  facet normal -0.544642 -0.838669 -0
    outer loop
      vertex 5.73473 8.51127 10
      vertex 5.625 8.58253 0
      vertex 5.73473 8.51127 0
    endloop
  endfacet
  facet normal 0.156449 0.987686 -0
    outer loop
      vertex 4.86934 6.25685 0
      vertex 4.74011 6.27732 10
      vertex 4.86934 6.25685 10
    endloop
  endfacet
  facet normal 0.156449 0.987686 0
    outer loop
      vertex 4.74011 6.27732 10
      vertex 4.86934 6.25685 0
      vertex 4.74011 6.27732 0
    endloop
  endfacet
  facet normal 0.777142 -0.629326 0
    outer loop
      vertex 3.98873 8.23473 10
      vertex 4.07107 8.33641 0
      vertex 4.07107 8.33641 10
    endloop
  endfacet
  facet normal 0.777142 -0.629326 0
    outer loop
      vertex 4.07107 8.33641 0
      vertex 3.98873 8.23473 10
      vertex 3.98873 8.23473 0
    endloop
  endfacet
  facet normal 0.0523542 0.998629 -0
    outer loop
      vertex 5 6.25 0
      vertex 4.86934 6.25685 10
      vertex 5 6.25 10
    endloop
  endfacet
  facet normal 0.0523542 0.998629 0
    outer loop
      vertex 4.86934 6.25685 10
      vertex 5 6.25 0
      vertex 4.86934 6.25685 0
    endloop
  endfacet
  facet normal 0.258795 -0.965932 0
    outer loop
      vertex 4.61373 8.68882 0
      vertex 4.74011 8.72268 10
      vertex 4.61373 8.68882 10
    endloop
  endfacet
  facet normal 0.258795 -0.965932 0
    outer loop
      vertex 4.74011 8.72268 10
      vertex 4.61373 8.68882 0
      vertex 4.74011 8.72268 0
    endloop
  endfacet
  facet normal -0.156449 0.987686 0
    outer loop
      vertex 5.25989 6.27732 0
      vertex 5.13066 6.25685 10
      vertex 5.25989 6.27732 10
    endloop
  endfacet
  facet normal -0.156449 0.987686 0
    outer loop
      vertex 5.13066 6.25685 10
      vertex 5.25989 6.27732 0
      vertex 5.13066 6.25685 0
    endloop
  endfacet
  facet normal -0.258795 0.965932 0
    outer loop
      vertex 5.38627 6.31118 0
      vertex 5.25989 6.27732 10
      vertex 5.38627 6.31118 10
    endloop
  endfacet
  facet normal -0.258795 0.965932 0
    outer loop
      vertex 5.25989 6.27732 10
      vertex 5.38627 6.31118 0
      vertex 5.25989 6.27732 0
    endloop
  endfacet
  facet normal 0.629326 -0.777142 0
    outer loop
      vertex 4.16359 8.42893 0
      vertex 4.26527 8.51127 10
      vertex 4.16359 8.42893 10
    endloop
  endfacet
  facet normal 0.629326 -0.777142 0
    outer loop
      vertex 4.26527 8.51127 10
      vertex 4.16359 8.42893 0
      vertex 4.26527 8.51127 0
    endloop
  endfacet
  facet normal -0.777142 -0.629326 0
    outer loop
      vertex 6.01127 8.23473 0
      vertex 5.92893 8.33641 10
      vertex 5.92893 8.33641 0
    endloop
  endfacet
  facet normal -0.777142 -0.629326 0
    outer loop
      vertex 5.92893 8.33641 10
      vertex 6.01127 8.23473 0
      vertex 6.01127 8.23473 10
    endloop
  endfacet
  facet normal 0.891008 -0.453988 0
    outer loop
      vertex 3.85807 8.00842 10
      vertex 3.91747 8.125 0
      vertex 3.91747 8.125 10
    endloop
  endfacet
  facet normal 0.891008 -0.453988 0
    outer loop
      vertex 3.91747 8.125 0
      vertex 3.85807 8.00842 10
      vertex 3.85807 8.00842 0
    endloop
  endfacet
  facet normal 0.965932 -0.258795 0
    outer loop
      vertex 3.77732 7.75989 10
      vertex 3.81118 7.88627 0
      vertex 3.81118 7.88627 10
    endloop
  endfacet
  facet normal 0.965932 -0.258795 0
    outer loop
      vertex 3.81118 7.88627 0
      vertex 3.77732 7.75989 10
      vertex 3.77732 7.75989 0
    endloop
  endfacet
  facet normal 0.933578 0.358375 0
    outer loop
      vertex 3.85807 6.99158 10
      vertex 3.81118 7.11373 0
      vertex 3.81118 7.11373 10
    endloop
  endfacet
  facet normal 0.933578 0.358375 0
    outer loop
      vertex 3.81118 7.11373 0
      vertex 3.85807 6.99158 10
      vertex 3.85807 6.99158 0
    endloop
  endfacet
  facet normal 0.453988 0.891008 -0
    outer loop
      vertex 4.49158 6.35807 0
      vertex 4.375 6.41747 10
      vertex 4.49158 6.35807 10
    endloop
  endfacet
  facet normal 0.453988 0.891008 0
    outer loop
      vertex 4.375 6.41747 10
      vertex 4.49158 6.35807 0
      vertex 4.375 6.41747 0
    endloop
  endfacet
  facet normal -0.777142 0.629326 0
    outer loop
      vertex 5.92893 6.66359 0
      vertex 6.01127 6.76527 10
      vertex 6.01127 6.76527 0
    endloop
  endfacet
  facet normal -0.777142 0.629326 0
    outer loop
      vertex 6.01127 6.76527 10
      vertex 5.92893 6.66359 0
      vertex 5.92893 6.66359 10
    endloop
  endfacet
  facet normal 0.707107 -0.707107 0
    outer loop
      vertex 4.07107 8.33641 10
      vertex 4.16359 8.42893 0
      vertex 4.16359 8.42893 10
    endloop
  endfacet
  facet normal 0.707107 -0.707107 0
    outer loop
      vertex 4.16359 8.42893 0
      vertex 4.07107 8.33641 10
      vertex 4.07107 8.33641 0
    endloop
  endfacet
  facet normal -0.358375 0.933578 0
    outer loop
      vertex 5.50842 6.35807 0
      vertex 5.38627 6.31118 10
      vertex 5.50842 6.35807 10
    endloop
  endfacet
  facet normal -0.358375 0.933578 0
    outer loop
      vertex 5.38627 6.31118 10
      vertex 5.50842 6.35807 0
      vertex 5.38627 6.31118 0
    endloop
  endfacet
  facet normal 0.453988 -0.891008 0
    outer loop
      vertex 4.375 8.58253 0
      vertex 4.49158 8.64193 10
      vertex 4.375 8.58253 10
    endloop
  endfacet
  facet normal 0.453988 -0.891008 0
    outer loop
      vertex 4.49158 8.64193 10
      vertex 4.375 8.58253 0
      vertex 4.49158 8.64193 0
    endloop
  endfacet
  facet normal -0.998629 0.0523542 0
    outer loop
      vertex 6.24315 7.36934 0
      vertex 6.25 7.5 10
      vertex 6.25 7.5 0
    endloop
  endfacet
  facet normal -0.998629 0.0523542 0
    outer loop
      vertex 6.25 7.5 10
      vertex 6.24315 7.36934 0
      vertex 6.24315 7.36934 10
    endloop
  endfacet
  facet normal -0.629326 -0.777142 0
    outer loop
      vertex 5.73473 8.51127 0
      vertex 5.83641 8.42893 10
      vertex 5.73473 8.51127 10
    endloop
  endfacet
  facet normal -0.629326 -0.777142 -0
    outer loop
      vertex 5.83641 8.42893 10
      vertex 5.73473 8.51127 0
      vertex 5.83641 8.42893 0
    endloop
  endfacet
  facet normal -0.156449 -0.987686 0
    outer loop
      vertex 5.13066 8.74315 0
      vertex 5.25989 8.72268 10
      vertex 5.13066 8.74315 10
    endloop
  endfacet
  facet normal -0.156449 -0.987686 -0
    outer loop
      vertex 5.25989 8.72268 10
      vertex 5.13066 8.74315 0
      vertex 5.25989 8.72268 0
    endloop
  endfacet
  facet normal 0.156449 -0.987686 0
    outer loop
      vertex 4.74011 8.72268 0
      vertex 4.86934 8.74315 10
      vertex 4.74011 8.72268 10
    endloop
  endfacet
  facet normal 0.156449 -0.987686 0
    outer loop
      vertex 4.86934 8.74315 10
      vertex 4.74011 8.72268 0
      vertex 4.86934 8.74315 0
    endloop
  endfacet
  facet normal -0.965932 0.258795 0
    outer loop
      vertex 6.18882 7.11373 0
      vertex 6.22268 7.24011 10
      vertex 6.22268 7.24011 0
    endloop
  endfacet
  facet normal -0.965932 0.258795 0
    outer loop
      vertex 6.22268 7.24011 10
      vertex 6.18882 7.11373 0
      vertex 6.18882 7.11373 10
    endloop
  endfacet
  facet normal -0.838669 0.544642 0
    outer loop
      vertex 6.01127 6.76527 0
      vertex 6.08253 6.875 10
      vertex 6.08253 6.875 0
    endloop
  endfacet
  facet normal -0.838669 0.544642 0
    outer loop
      vertex 6.08253 6.875 10
      vertex 6.01127 6.76527 0
      vertex 6.01127 6.76527 10
    endloop
  endfacet
  facet normal -0.891008 -0.453988 0
    outer loop
      vertex 6.14193 8.00842 0
      vertex 6.08253 8.125 10
      vertex 6.08253 8.125 0
    endloop
  endfacet
  facet normal -0.891008 -0.453988 0
    outer loop
      vertex 6.08253 8.125 10
      vertex 6.14193 8.00842 0
      vertex 6.14193 8.00842 10
    endloop
  endfacet
  facet normal -0.987686 0.156449 0
    outer loop
      vertex 6.22268 7.24011 0
      vertex 6.24315 7.36934 10
      vertex 6.24315 7.36934 0
    endloop
  endfacet
  facet normal -0.987686 0.156449 0
    outer loop
      vertex 6.24315 7.36934 10
      vertex 6.22268 7.24011 0
      vertex 6.22268 7.24011 10
    endloop
  endfacet
  facet normal -0.838669 -0.544642 0
    outer loop
      vertex 6.08253 8.125 0
      vertex 6.01127 8.23473 10
      vertex 6.01127 8.23473 0
    endloop
  endfacet
  facet normal -0.838669 -0.544642 0
    outer loop
      vertex 6.01127 8.23473 10
      vertex 6.08253 8.125 0
      vertex 6.08253 8.125 10
    endloop
  endfacet
  facet normal 0.777142 0.629326 0
    outer loop
      vertex 4.07107 6.66359 10
      vertex 3.98873 6.76527 0
      vertex 3.98873 6.76527 10
    endloop
  endfacet
  facet normal 0.777142 0.629326 0
    outer loop
      vertex 3.98873 6.76527 0
      vertex 4.07107 6.66359 10
      vertex 4.07107 6.66359 0
    endloop
  endfacet
  facet normal -0.258795 -0.965932 0
    outer loop
      vertex 5.25989 8.72268 0
      vertex 5.38627 8.68882 10
      vertex 5.25989 8.72268 10
    endloop
  endfacet
  facet normal -0.258795 -0.965932 -0
    outer loop
      vertex 5.38627 8.68882 10
      vertex 5.25989 8.72268 0
      vertex 5.38627 8.68882 0
    endloop
  endfacet
  facet normal 0.707107 0.707107 0
    outer loop
      vertex 4.16359 6.57107 10
      vertex 4.07107 6.66359 0
      vertex 4.07107 6.66359 10
    endloop
  endfacet
  facet normal 0.707107 0.707107 0
    outer loop
      vertex 4.07107 6.66359 0
      vertex 4.16359 6.57107 10
      vertex 4.16359 6.57107 0
    endloop
  endfacet
  facet normal -0.544642 0.838669 0
    outer loop
      vertex 5.73473 6.48873 0
      vertex 5.625 6.41747 10
      vertex 5.73473 6.48873 10
    endloop
  endfacet
  facet normal -0.544642 0.838669 0
    outer loop
      vertex 5.625 6.41747 10
      vertex 5.73473 6.48873 0
      vertex 5.625 6.41747 0
    endloop
  endfacet
  facet normal 0.933578 -0.358375 0
    outer loop
      vertex 3.81118 7.88627 10
      vertex 3.85807 8.00842 0
      vertex 3.85807 8.00842 10
    endloop
  endfacet
  facet normal 0.933578 -0.358375 0
    outer loop
      vertex 3.85807 8.00842 0
      vertex 3.81118 7.88627 10
      vertex 3.81118 7.88627 0
    endloop
  endfacet
  facet normal 0.965932 0.258795 0
    outer loop
      vertex 3.81118 7.11373 10
      vertex 3.77732 7.24011 0
      vertex 3.77732 7.24011 10
    endloop
  endfacet
  facet normal 0.965932 0.258795 0
    outer loop
      vertex 3.77732 7.24011 0
      vertex 3.81118 7.11373 10
      vertex 3.81118 7.11373 0
    endloop
  endfacet
  facet normal 0.987686 -0.156449 0
    outer loop
      vertex 3.75685 7.63066 10
      vertex 3.77732 7.75989 0
      vertex 3.77732 7.75989 10
    endloop
  endfacet
  facet normal 0.987686 -0.156449 0
    outer loop
      vertex 3.77732 7.75989 0
      vertex 3.75685 7.63066 10
      vertex 3.75685 7.63066 0
    endloop
  endfacet
  facet normal 0.629326 0.777142 -0
    outer loop
      vertex 4.26527 6.48873 0
      vertex 4.16359 6.57107 10
      vertex 4.26527 6.48873 10
    endloop
  endfacet
  facet normal 0.629326 0.777142 0
    outer loop
      vertex 4.16359 6.57107 10
      vertex 4.26527 6.48873 0
      vertex 4.16359 6.57107 0
    endloop
  endfacet
  facet normal 0.987686 0.156449 0
    outer loop
      vertex 3.77732 7.24011 10
      vertex 3.75685 7.36934 0
      vertex 3.75685 7.36934 10
    endloop
  endfacet
  facet normal 0.987686 0.156449 0
    outer loop
      vertex 3.75685 7.36934 0
      vertex 3.77732 7.24011 10
      vertex 3.77732 7.24011 0
    endloop
  endfacet
  facet normal 0.544642 0.838669 -0
    outer loop
      vertex 4.375 6.41747 0
      vertex 4.26527 6.48873 10
      vertex 4.375 6.41747 10
    endloop
  endfacet
  facet normal 0.544642 0.838669 0
    outer loop
      vertex 4.26527 6.48873 10
      vertex 4.375 6.41747 0
      vertex 4.26527 6.48873 0
    endloop
  endfacet
  facet normal 0.998629 0.0523542 0
    outer loop
      vertex 3.75685 7.36934 10
      vertex 3.75 7.5 0
      vertex 3.75 7.5 10
    endloop
  endfacet
  facet normal 0.998629 0.0523542 0
    outer loop
      vertex 3.75 7.5 0
      vertex 3.75685 7.36934 10
      vertex 3.75685 7.36934 0
    endloop
  endfacet
  facet normal -0.629326 0.777142 0
    outer loop
      vertex 5.83641 6.57107 0
      vertex 5.73473 6.48873 10
      vertex 5.83641 6.57107 10
    endloop
  endfacet
  facet normal -0.629326 0.777142 0
    outer loop
      vertex 5.73473 6.48873 10
      vertex 5.83641 6.57107 0
      vertex 5.73473 6.48873 0
    endloop
  endfacet
  facet normal 0.838669 -0.544642 0
    outer loop
      vertex 3.91747 8.125 10
      vertex 3.98873 8.23473 0
      vertex 3.98873 8.23473 10
    endloop
  endfacet
  facet normal 0.838669 -0.544642 0
    outer loop
      vertex 3.98873 8.23473 0
      vertex 3.91747 8.125 10
      vertex 3.91747 8.125 0
    endloop
  endfacet
  facet normal 0.258795 0.965932 -0
    outer loop
      vertex 4.74011 6.27732 0
      vertex 4.61373 6.31118 10
      vertex 4.74011 6.27732 10
    endloop
  endfacet
  facet normal 0.258795 0.965932 0
    outer loop
      vertex 4.61373 6.31118 10
      vertex 4.74011 6.27732 0
      vertex 4.61373 6.31118 0
    endloop
  endfacet
  facet normal -0.707107 -0.707107 0
    outer loop
      vertex 5.92893 8.33641 0
      vertex 5.83641 8.42893 10
      vertex 5.83641 8.42893 0
    endloop
  endfacet
  facet normal -0.707107 -0.707107 0
    outer loop
      vertex 5.83641 8.42893 10
      vertex 5.92893 8.33641 0
      vertex 5.92893 8.33641 10
    endloop
  endfacet
  facet normal 0.544642 -0.838669 0
    outer loop
      vertex 4.26527 8.51127 0
      vertex 4.375 8.58253 10
      vertex 4.26527 8.51127 10
    endloop
  endfacet
  facet normal 0.544642 -0.838669 0
    outer loop
      vertex 4.375 8.58253 10
      vertex 4.26527 8.51127 0
      vertex 4.375 8.58253 0
    endloop
  endfacet
  facet normal 0.838669 0.544642 0
    outer loop
      vertex 3.98873 6.76527 10
      vertex 3.91747 6.875 0
      vertex 3.91747 6.875 10
    endloop
  endfacet
  facet normal 0.838669 0.544642 0
    outer loop
      vertex 3.91747 6.875 0
      vertex 3.98873 6.76527 10
      vertex 3.98873 6.76527 0
    endloop
  endfacet
  facet normal -0.707107 0.707107 0
    outer loop
      vertex 5.83641 6.57107 0
      vertex 5.92893 6.66359 10
      vertex 5.92893 6.66359 0
    endloop
  endfacet
  facet normal -0.707107 0.707107 0
    outer loop
      vertex 5.92893 6.66359 10
      vertex 5.83641 6.57107 0
      vertex 5.83641 6.57107 10
    endloop
  endfacet
  facet normal -0.987651 -0.156673 0
    outer loop
      vertex 26.2432 7.63066 0
      vertex 26.2227 7.75989 10
      vertex 26.2227 7.75989 0
    endloop
  endfacet
  facet normal -0.987651 -0.156673 0
    outer loop
      vertex 26.2227 7.75989 10
      vertex 26.2432 7.63066 0
      vertex 26.2432 7.63066 10
    endloop
  endfacet
  facet normal -0.998648 -0.0519731 0
    outer loop
      vertex 26.25 7.5 0
      vertex 26.2432 7.63066 10
      vertex 26.2432 7.63066 0
    endloop
  endfacet
  facet normal -0.998648 -0.0519731 0
    outer loop
      vertex 26.2432 7.63066 10
      vertex 26.25 7.5 0
      vertex 26.25 7.5 10
    endloop
  endfacet
  facet normal -0.965856 -0.25908 0
    outer loop
      vertex 26.2227 7.75989 0
      vertex 26.1888 7.88627 10
      vertex 26.1888 7.88627 0
    endloop
  endfacet
  facet normal -0.965856 -0.25908 0
    outer loop
      vertex 26.1888 7.88627 10
      vertex 26.2227 7.75989 0
      vertex 26.2227 7.75989 10
    endloop
  endfacet
  facet normal -0.933552 -0.358441 0
    outer loop
      vertex 26.1888 7.88627 0
      vertex 26.1419 8.00842 10
      vertex 26.1419 8.00842 0
    endloop
  endfacet
  facet normal -0.933552 -0.358441 0
    outer loop
      vertex 26.1419 8.00842 10
      vertex 26.1888 7.88627 0
      vertex 26.1888 7.88627 10
    endloop
  endfacet
  facet normal -0.933552 0.358441 0
    outer loop
      vertex 26.1419 6.99158 0
      vertex 26.1888 7.11373 10
      vertex 26.1888 7.11373 0
    endloop
  endfacet
  facet normal -0.933552 0.358441 0
    outer loop
      vertex 26.1888 7.11373 10
      vertex 26.1419 6.99158 0
      vertex 26.1419 6.99158 10
    endloop
  endfacet
  facet normal -0.453926 -0.891039 0
    outer loop
      vertex 25.5084 8.64193 0
      vertex 25.625 8.58253 10
      vertex 25.5084 8.64193 10
    endloop
  endfacet
  facet normal -0.453926 -0.891039 -0
    outer loop
      vertex 25.625 8.58253 10
      vertex 25.5084 8.64193 0
      vertex 25.625 8.58253 0
    endloop
  endfacet
  facet normal 0.998648 -0.0519731 0
    outer loop
      vertex 23.75 7.5 10
      vertex 23.7568 7.63066 0
      vertex 23.7568 7.63066 10
    endloop
  endfacet
  facet normal 0.998648 -0.0519731 0
    outer loop
      vertex 23.7568 7.63066 0
      vertex 23.75 7.5 10
      vertex 23.75 7.5 0
    endloop
  endfacet
  facet normal 0.358503 -0.933529 0
    outer loop
      vertex 24.4916 8.64193 0
      vertex 24.6137 8.68882 10
      vertex 24.4916 8.64193 10
    endloop
  endfacet
  facet normal 0.358503 -0.933529 0
    outer loop
      vertex 24.6137 8.68882 10
      vertex 24.4916 8.64193 0
      vertex 24.6137 8.68882 0
    endloop
  endfacet
  facet normal 0.358503 0.933529 -0
    outer loop
      vertex 24.6137 6.31118 0
      vertex 24.4916 6.35807 10
      vertex 24.6137 6.31118 10
    endloop
  endfacet
  facet normal 0.358503 0.933529 0
    outer loop
      vertex 24.4916 6.35807 10
      vertex 24.6137 6.31118 0
      vertex 24.4916 6.35807 0
    endloop
  endfacet
  facet normal -0.0523383 -0.998629 0
    outer loop
      vertex 25 8.75 0
      vertex 25.1307 8.74315 10
      vertex 25 8.75 10
    endloop
  endfacet
  facet normal -0.0523383 -0.998629 -0
    outer loop
      vertex 25.1307 8.74315 10
      vertex 25 8.75 0
      vertex 25.1307 8.74315 0
    endloop
  endfacet
  facet normal -0.453926 0.891039 0
    outer loop
      vertex 25.625 6.41747 0
      vertex 25.5084 6.35807 10
      vertex 25.625 6.41747 10
    endloop
  endfacet
  facet normal -0.453926 0.891039 0
    outer loop
      vertex 25.5084 6.35807 10
      vertex 25.625 6.41747 0
      vertex 25.5084 6.35807 0
    endloop
  endfacet
  facet normal 0.891008 0.453988 0
    outer loop
      vertex 23.9175 6.875 10
      vertex 23.8581 6.99158 0
      vertex 23.8581 6.99158 10
    endloop
  endfacet
  facet normal 0.891008 0.453988 0
    outer loop
      vertex 23.8581 6.99158 0
      vertex 23.9175 6.875 10
      vertex 23.9175 6.875 0
    endloop
  endfacet
  facet normal -0.358503 -0.933529 0
    outer loop
      vertex 25.3863 8.68882 0
      vertex 25.5084 8.64193 10
      vertex 25.3863 8.68882 10
    endloop
  endfacet
  facet normal -0.358503 -0.933529 -0
    outer loop
      vertex 25.5084 8.64193 10
      vertex 25.3863 8.68882 0
      vertex 25.5084 8.64193 0
    endloop
  endfacet
  facet normal 0.0523383 -0.998629 0
    outer loop
      vertex 24.8693 8.74315 0
      vertex 25 8.75 10
      vertex 24.8693 8.74315 10
    endloop
  endfacet
  facet normal 0.0523383 -0.998629 0
    outer loop
      vertex 25 8.75 10
      vertex 24.8693 8.74315 0
      vertex 25 8.75 0
    endloop
  endfacet
  facet normal -0.891008 0.453988 0
    outer loop
      vertex 26.0825 6.875 0
      vertex 26.1419 6.99158 10
      vertex 26.1419 6.99158 0
    endloop
  endfacet
  facet normal -0.891008 0.453988 0
    outer loop
      vertex 26.1419 6.99158 10
      vertex 26.0825 6.875 0
      vertex 26.0825 6.875 10
    endloop
  endfacet
  facet normal -0.0523383 0.998629 0
    outer loop
      vertex 25.1307 6.25685 0
      vertex 25 6.25 10
      vertex 25.1307 6.25685 10
    endloop
  endfacet
  facet normal -0.0523383 0.998629 0
    outer loop
      vertex 25 6.25 10
      vertex 25.1307 6.25685 0
      vertex 25 6.25 0
    endloop
  endfacet
  facet normal -0.544746 -0.838601 0
    outer loop
      vertex 25.625 8.58253 0
      vertex 25.7347 8.51127 10
      vertex 25.625 8.58253 10
    endloop
  endfacet
  facet normal -0.544746 -0.838601 -0
    outer loop
      vertex 25.7347 8.51127 10
      vertex 25.625 8.58253 0
      vertex 25.7347 8.51127 0
    endloop
  endfacet
  facet normal 0.156485 0.98768 -0
    outer loop
      vertex 24.8693 6.25685 0
      vertex 24.7401 6.27732 10
      vertex 24.8693 6.25685 10
    endloop
  endfacet
  facet normal 0.156485 0.98768 0
    outer loop
      vertex 24.7401 6.27732 10
      vertex 24.8693 6.25685 0
      vertex 24.7401 6.27732 0
    endloop
  endfacet
  facet normal 0.776917 -0.629603 0
    outer loop
      vertex 23.9887 8.23473 10
      vertex 24.0711 8.33641 0
      vertex 24.0711 8.33641 10
    endloop
  endfacet
  facet normal 0.776917 -0.629603 0
    outer loop
      vertex 24.0711 8.33641 0
      vertex 23.9887 8.23473 10
      vertex 23.9887 8.23473 0
    endloop
  endfacet
  facet normal 0.0523383 0.998629 -0
    outer loop
      vertex 25 6.25 0
      vertex 24.8693 6.25685 10
      vertex 25 6.25 10
    endloop
  endfacet
  facet normal 0.0523383 0.998629 0
    outer loop
      vertex 24.8693 6.25685 10
      vertex 25 6.25 0
      vertex 24.8693 6.25685 0
    endloop
  endfacet
  facet normal 0.258756 -0.965943 0
    outer loop
      vertex 24.6137 8.68882 0
      vertex 24.7401 8.72268 10
      vertex 24.6137 8.68882 10
    endloop
  endfacet
  facet normal 0.258756 -0.965943 0
    outer loop
      vertex 24.7401 8.72268 10
      vertex 24.6137 8.68882 0
      vertex 24.7401 8.72268 0
    endloop
  endfacet
  facet normal -0.156485 0.98768 0
    outer loop
      vertex 25.2599 6.27732 0
      vertex 25.1307 6.25685 10
      vertex 25.2599 6.27732 10
    endloop
  endfacet
  facet normal -0.156485 0.98768 0
    outer loop
      vertex 25.1307 6.25685 10
      vertex 25.2599 6.27732 0
      vertex 25.1307 6.25685 0
    endloop
  endfacet
  facet normal -0.258756 0.965943 0
    outer loop
      vertex 25.3863 6.31118 0
      vertex 25.2599 6.27732 10
      vertex 25.3863 6.31118 10
    endloop
  endfacet
  facet normal -0.258756 0.965943 0
    outer loop
      vertex 25.2599 6.27732 10
      vertex 25.3863 6.31118 0
      vertex 25.2599 6.27732 0
    endloop
  endfacet
  facet normal 0.629251 -0.777202 0
    outer loop
      vertex 24.1636 8.42893 0
      vertex 24.2653 8.51127 10
      vertex 24.1636 8.42893 10
    endloop
  endfacet
  facet normal 0.629251 -0.777202 0
    outer loop
      vertex 24.2653 8.51127 10
      vertex 24.1636 8.42893 0
      vertex 24.2653 8.51127 0
    endloop
  endfacet
  facet normal -0.776917 -0.629603 0
    outer loop
      vertex 26.0113 8.23473 0
      vertex 25.9289 8.33641 10
      vertex 25.9289 8.33641 0
    endloop
  endfacet
  facet normal -0.776917 -0.629603 0
    outer loop
      vertex 25.9289 8.33641 10
      vertex 26.0113 8.23473 0
      vertex 26.0113 8.23473 10
    endloop
  endfacet
  facet normal 0.891008 -0.453988 0
    outer loop
      vertex 23.8581 8.00842 10
      vertex 23.9175 8.125 0
      vertex 23.9175 8.125 10
    endloop
  endfacet
  facet normal 0.891008 -0.453988 0
    outer loop
      vertex 23.9175 8.125 0
      vertex 23.8581 8.00842 10
      vertex 23.8581 8.00842 0
    endloop
  endfacet
  facet normal 0.965856 -0.25908 0
    outer loop
      vertex 23.7773 7.75989 10
      vertex 23.8112 7.88627 0
      vertex 23.8112 7.88627 10
    endloop
  endfacet
  facet normal 0.965856 -0.25908 0
    outer loop
      vertex 23.8112 7.88627 0
      vertex 23.7773 7.75989 10
      vertex 23.7773 7.75989 0
    endloop
  endfacet
  facet normal 0.933552 0.358441 0
    outer loop
      vertex 23.8581 6.99158 10
      vertex 23.8112 7.11373 0
      vertex 23.8112 7.11373 10
    endloop
  endfacet
  facet normal 0.933552 0.358441 0
    outer loop
      vertex 23.8112 7.11373 0
      vertex 23.8581 6.99158 10
      vertex 23.8581 6.99158 0
    endloop
  endfacet
  facet normal -0.776917 0.629603 0
    outer loop
      vertex 25.9289 6.66359 0
      vertex 26.0113 6.76527 10
      vertex 26.0113 6.76527 0
    endloop
  endfacet
  facet normal -0.776917 0.629603 0
    outer loop
      vertex 26.0113 6.76527 10
      vertex 25.9289 6.66359 0
      vertex 25.9289 6.66359 10
    endloop
  endfacet
  facet normal 0.707183 -0.70703 0
    outer loop
      vertex 24.0711 8.33641 10
      vertex 24.1636 8.42893 0
      vertex 24.1636 8.42893 10
    endloop
  endfacet
  facet normal 0.707183 -0.70703 0
    outer loop
      vertex 24.1636 8.42893 0
      vertex 24.0711 8.33641 10
      vertex 24.0711 8.33641 0
    endloop
  endfacet
  facet normal -0.358503 0.933529 0
    outer loop
      vertex 25.5084 6.35807 0
      vertex 25.3863 6.31118 10
      vertex 25.5084 6.35807 10
    endloop
  endfacet
  facet normal -0.358503 0.933529 0
    outer loop
      vertex 25.3863 6.31118 10
      vertex 25.5084 6.35807 0
      vertex 25.3863 6.31118 0
    endloop
  endfacet
  facet normal 0.453926 -0.891039 0
    outer loop
      vertex 24.375 8.58253 0
      vertex 24.4916 8.64193 10
      vertex 24.375 8.58253 10
    endloop
  endfacet
  facet normal 0.453926 -0.891039 0
    outer loop
      vertex 24.4916 8.64193 10
      vertex 24.375 8.58253 0
      vertex 24.4916 8.64193 0
    endloop
  endfacet
  facet normal -0.998648 0.0519731 0
    outer loop
      vertex 26.2432 7.36934 0
      vertex 26.25 7.5 10
      vertex 26.25 7.5 0
    endloop
  endfacet
  facet normal -0.998648 0.0519731 0
    outer loop
      vertex 26.25 7.5 10
      vertex 26.2432 7.36934 0
      vertex 26.2432 7.36934 10
    endloop
  endfacet
  facet normal -0.629251 -0.777202 0
    outer loop
      vertex 25.7347 8.51127 0
      vertex 25.8364 8.42893 10
      vertex 25.7347 8.51127 10
    endloop
  endfacet
  facet normal -0.629251 -0.777202 -0
    outer loop
      vertex 25.8364 8.42893 10
      vertex 25.7347 8.51127 0
      vertex 25.8364 8.42893 0
    endloop
  endfacet
  facet normal -0.156485 -0.98768 0
    outer loop
      vertex 25.1307 8.74315 0
      vertex 25.2599 8.72268 10
      vertex 25.1307 8.74315 10
    endloop
  endfacet
  facet normal -0.156485 -0.98768 -0
    outer loop
      vertex 25.2599 8.72268 10
      vertex 25.1307 8.74315 0
      vertex 25.2599 8.72268 0
    endloop
  endfacet
  facet normal 0.156485 -0.98768 0
    outer loop
      vertex 24.7401 8.72268 0
      vertex 24.8693 8.74315 10
      vertex 24.7401 8.72268 10
    endloop
  endfacet
  facet normal 0.156485 -0.98768 0
    outer loop
      vertex 24.8693 8.74315 10
      vertex 24.7401 8.72268 0
      vertex 24.8693 8.74315 0
    endloop
  endfacet
  facet normal -0.965856 0.25908 0
    outer loop
      vertex 26.1888 7.11373 0
      vertex 26.2227 7.24011 10
      vertex 26.2227 7.24011 0
    endloop
  endfacet
  facet normal -0.965856 0.25908 0
    outer loop
      vertex 26.2227 7.24011 10
      vertex 26.1888 7.11373 0
      vertex 26.1888 7.11373 10
    endloop
  endfacet
  facet normal -0.891008 -0.453988 0
    outer loop
      vertex 26.1419 8.00842 0
      vertex 26.0825 8.125 10
      vertex 26.0825 8.125 0
    endloop
  endfacet
  facet normal -0.891008 -0.453988 0
    outer loop
      vertex 26.0825 8.125 10
      vertex 26.1419 8.00842 0
      vertex 26.1419 8.00842 10
    endloop
  endfacet
  facet normal -0.838878 0.544319 0
    outer loop
      vertex 26.0113 6.76527 0
      vertex 26.0825 6.875 10
      vertex 26.0825 6.875 0
    endloop
  endfacet
  facet normal -0.838878 0.544319 0
    outer loop
      vertex 26.0825 6.875 10
      vertex 26.0113 6.76527 0
      vertex 26.0113 6.76527 10
    endloop
  endfacet
  facet normal -0.987651 0.156673 0
    outer loop
      vertex 26.2227 7.24011 0
      vertex 26.2432 7.36934 10
      vertex 26.2432 7.36934 0
    endloop
  endfacet
  facet normal -0.987651 0.156673 0
    outer loop
      vertex 26.2432 7.36934 10
      vertex 26.2227 7.24011 0
      vertex 26.2227 7.24011 10
    endloop
  endfacet
  facet normal -0.838878 -0.544319 0
    outer loop
      vertex 26.0825 8.125 0
      vertex 26.0113 8.23473 10
      vertex 26.0113 8.23473 0
    endloop
  endfacet
  facet normal -0.838878 -0.544319 0
    outer loop
      vertex 26.0113 8.23473 10
      vertex 26.0825 8.125 0
      vertex 26.0825 8.125 10
    endloop
  endfacet
  facet normal 0.776917 0.629603 0
    outer loop
      vertex 24.0711 6.66359 10
      vertex 23.9887 6.76527 0
      vertex 23.9887 6.76527 10
    endloop
  endfacet
  facet normal 0.776917 0.629603 0
    outer loop
      vertex 23.9887 6.76527 0
      vertex 24.0711 6.66359 10
      vertex 24.0711 6.66359 0
    endloop
  endfacet
  facet normal -0.258756 -0.965943 0
    outer loop
      vertex 25.2599 8.72268 0
      vertex 25.3863 8.68882 10
      vertex 25.2599 8.72268 10
    endloop
  endfacet
  facet normal -0.258756 -0.965943 -0
    outer loop
      vertex 25.3863 8.68882 10
      vertex 25.2599 8.72268 0
      vertex 25.3863 8.68882 0
    endloop
  endfacet
  facet normal 0.707183 0.70703 0
    outer loop
      vertex 24.1636 6.57107 10
      vertex 24.0711 6.66359 0
      vertex 24.0711 6.66359 10
    endloop
  endfacet
  facet normal 0.707183 0.70703 0
    outer loop
      vertex 24.0711 6.66359 0
      vertex 24.1636 6.57107 10
      vertex 24.1636 6.57107 0
    endloop
  endfacet
  facet normal -0.544746 0.838601 0
    outer loop
      vertex 25.7347 6.48873 0
      vertex 25.625 6.41747 10
      vertex 25.7347 6.48873 10
    endloop
  endfacet
  facet normal -0.544746 0.838601 0
    outer loop
      vertex 25.625 6.41747 10
      vertex 25.7347 6.48873 0
      vertex 25.625 6.41747 0
    endloop
  endfacet
  facet normal 0.933552 -0.358441 0
    outer loop
      vertex 23.8112 7.88627 10
      vertex 23.8581 8.00842 0
      vertex 23.8581 8.00842 10
    endloop
  endfacet
  facet normal 0.933552 -0.358441 0
    outer loop
      vertex 23.8581 8.00842 0
      vertex 23.8112 7.88627 10
      vertex 23.8112 7.88627 0
    endloop
  endfacet
  facet normal 0.629251 0.777202 -0
    outer loop
      vertex 24.2653 6.48873 0
      vertex 24.1636 6.57107 10
      vertex 24.2653 6.48873 10
    endloop
  endfacet
  facet normal 0.629251 0.777202 0
    outer loop
      vertex 24.1636 6.57107 10
      vertex 24.2653 6.48873 0
      vertex 24.1636 6.57107 0
    endloop
  endfacet
  facet normal 0.965856 0.25908 0
    outer loop
      vertex 23.8112 7.11373 10
      vertex 23.7773 7.24011 0
      vertex 23.7773 7.24011 10
    endloop
  endfacet
  facet normal 0.965856 0.25908 0
    outer loop
      vertex 23.7773 7.24011 0
      vertex 23.8112 7.11373 10
      vertex 23.8112 7.11373 0
    endloop
  endfacet
  facet normal 0.987651 -0.156673 0
    outer loop
      vertex 23.7568 7.63066 10
      vertex 23.7773 7.75989 0
      vertex 23.7773 7.75989 10
    endloop
  endfacet
  facet normal 0.987651 -0.156673 0
    outer loop
      vertex 23.7773 7.75989 0
      vertex 23.7568 7.63066 10
      vertex 23.7568 7.63066 0
    endloop
  endfacet
  facet normal 0.987651 0.156673 0
    outer loop
      vertex 23.7773 7.24011 10
      vertex 23.7568 7.36934 0
      vertex 23.7568 7.36934 10
    endloop
  endfacet
  facet normal 0.987651 0.156673 0
    outer loop
      vertex 23.7568 7.36934 0
      vertex 23.7773 7.24011 10
      vertex 23.7773 7.24011 0
    endloop
  endfacet
  facet normal 0.544746 0.838601 -0
    outer loop
      vertex 24.375 6.41747 0
      vertex 24.2653 6.48873 10
      vertex 24.375 6.41747 10
    endloop
  endfacet
  facet normal 0.544746 0.838601 0
    outer loop
      vertex 24.2653 6.48873 10
      vertex 24.375 6.41747 0
      vertex 24.2653 6.48873 0
    endloop
  endfacet
  facet normal 0.998648 0.0519731 0
    outer loop
      vertex 23.7568 7.36934 10
      vertex 23.75 7.5 0
      vertex 23.75 7.5 10
    endloop
  endfacet
  facet normal 0.998648 0.0519731 0
    outer loop
      vertex 23.75 7.5 0
      vertex 23.7568 7.36934 10
      vertex 23.7568 7.36934 0
    endloop
  endfacet
  facet normal -0.629251 0.777202 0
    outer loop
      vertex 25.8364 6.57107 0
      vertex 25.7347 6.48873 10
      vertex 25.8364 6.57107 10
    endloop
  endfacet
  facet normal -0.629251 0.777202 0
    outer loop
      vertex 25.7347 6.48873 10
      vertex 25.8364 6.57107 0
      vertex 25.7347 6.48873 0
    endloop
  endfacet
  facet normal 0.838878 -0.544319 0
    outer loop
      vertex 23.9175 8.125 10
      vertex 23.9887 8.23473 0
      vertex 23.9887 8.23473 10
    endloop
  endfacet
  facet normal 0.838878 -0.544319 0
    outer loop
      vertex 23.9887 8.23473 0
      vertex 23.9175 8.125 10
      vertex 23.9175 8.125 0
    endloop
  endfacet
  facet normal 0.453926 0.891039 -0
    outer loop
      vertex 24.4916 6.35807 0
      vertex 24.375 6.41747 10
      vertex 24.4916 6.35807 10
    endloop
  endfacet
  facet normal 0.453926 0.891039 0
    outer loop
      vertex 24.375 6.41747 10
      vertex 24.4916 6.35807 0
      vertex 24.375 6.41747 0
    endloop
  endfacet
  facet normal 0.258756 0.965943 -0
    outer loop
      vertex 24.7401 6.27732 0
      vertex 24.6137 6.31118 10
      vertex 24.7401 6.27732 10
    endloop
  endfacet
  facet normal 0.258756 0.965943 0
    outer loop
      vertex 24.6137 6.31118 10
      vertex 24.7401 6.27732 0
      vertex 24.6137 6.31118 0
    endloop
  endfacet
  facet normal -0.707183 -0.70703 0
    outer loop
      vertex 25.9289 8.33641 0
      vertex 25.8364 8.42893 10
      vertex 25.8364 8.42893 0
    endloop
  endfacet
  facet normal -0.707183 -0.70703 0
    outer loop
      vertex 25.8364 8.42893 10
      vertex 25.9289 8.33641 0
      vertex 25.9289 8.33641 10
    endloop
  endfacet
  facet normal 0.544746 -0.838601 0
    outer loop
      vertex 24.2653 8.51127 0
      vertex 24.375 8.58253 10
      vertex 24.2653 8.51127 10
    endloop
  endfacet
  facet normal 0.544746 -0.838601 0
    outer loop
      vertex 24.375 8.58253 10
      vertex 24.2653 8.51127 0
      vertex 24.375 8.58253 0
    endloop
  endfacet
  facet normal 0.838878 0.544319 0
    outer loop
      vertex 23.9887 6.76527 10
      vertex 23.9175 6.875 0
      vertex 23.9175 6.875 10
    endloop
  endfacet
  facet normal 0.838878 0.544319 0
    outer loop
      vertex 23.9175 6.875 0
      vertex 23.9887 6.76527 10
      vertex 23.9887 6.76527 0
    endloop
  endfacet
  facet normal -0.707183 0.70703 0
    outer loop
      vertex 25.8364 6.57107 0
      vertex 25.9289 6.66359 10
      vertex 25.9289 6.66359 0
    endloop
  endfacet
  facet normal -0.707183 0.70703 0
    outer loop
      vertex 25.9289 6.66359 10
      vertex 25.8364 6.57107 0
      vertex 25.8364 6.57107 10
    endloop
  endfacet
  facet normal -1 0 0
    outer loop
      vertex 20 0 5
      vertex 20 15 10
      vertex 20 15 5
    endloop
  endfacet
  facet normal -1 -0 0
    outer loop
      vertex 20 15 10
      vertex 20 0 5
      vertex 20 0 10
    endloop
  endfacet
  facet normal -0 0 1
    outer loop
      vertex 10 15 5
      vertex 20 0 5
      vertex 20 15 5
    endloop
  endfacet
  facet normal 0 0 1
    outer loop
      vertex 20 0 5
      vertex 10 15 5
      vertex 10 0 5
    endloop
  endfacet
  facet normal 1 -0 0
    outer loop
      vertex 10 0 10
      vertex 10 15 5
      vertex 10 15 10
    endloop
  endfacet
  facet normal 1 0 0
    outer loop
      vertex 10 15 5
      vertex 10 0 10
      vertex 10 0 5
    endloop
  endfacet
endsolid OpenSCAD_Model
