solid OpenSCAD_Model
  facet normal 0 0 -1
    outer loop
      vertex -325 325 0
      vertex -32.3282 44.4959 0
      vertex -35.0583 42.3782 0
    endloop
  endfacet
  facet normal 0 0 -1
    outer loop
      vertex 325 325 0
      vertex 44.4959 32.3282 0
      vertex 42.3782 35.0583 0
    endloop
  endfacet
  facet normal 0 0 -1
    outer loop
      vertex 325 -325 0
      vertex 0 -55 0
      vertex 3.45348 -54.8915 0
    endloop
  endfacet
  facet normal 0 -0 -1
    outer loop
      vertex 0 -55 0
      vertex 325 -325 0
      vertex -325 -325 0
    endloop
  endfacet
  facet normal 0 -0 -1
    outer loop
      vertex -3.45348 -54.8915 0
      vertex 0 -55 0
      vertex -325 -325 0
    endloop
  endfacet
  facet normal 0 -0 -1
    outer loop
      vertex -6.89333 -54.5663 0
      vertex -3.45348 -54.8915 0
      vertex -325 -325 0
    endloop
  endfacet
  facet normal 0 -0 -1
    outer loop
      vertex -10.306 -54.0258 0
      vertex -6.89333 -54.5663 0
      vertex -325 -325 0
    endloop
  endfacet
  facet normal 0 -0 -1
    outer loop
      vertex -13.6779 -53.2721 0
      vertex -10.306 -54.0258 0
      vertex -325 -325 0
    endloop
  endfacet
  facet normal 0 -0 -1
    outer loop
      vertex -16.9959 -52.3081 0
      vertex -13.6779 -53.2721 0
      vertex -325 -325 0
    endloop
  endfacet
  facet normal 0 -0 -1
    outer loop
      vertex -20.2469 -51.1377 0
      vertex -16.9959 -52.3081 0
      vertex -325 -325 0
    endloop
  endfacet
  facet normal 0 -0 -1
    outer loop
      vertex -23.4179 -49.7655 0
      vertex -20.2469 -51.1377 0
      vertex -325 -325 0
    endloop
  endfacet
  facet normal 0 -0 -1
    outer loop
      vertex -26.4965 -48.1969 0
      vertex -23.4179 -49.7655 0
      vertex -325 -325 0
    endloop
  endfacet
  facet normal 0 -0 -1
    outer loop
      vertex -29.4705 -46.438 0
      vertex -26.4965 -48.1969 0
      vertex -325 -325 0
    endloop
  endfacet
  facet normal 0 -0 -1
    outer loop
      vertex -32.3282 -44.4959 0
      vertex -29.4705 -46.438 0
      vertex -325 -325 0
    endloop
  endfacet
  facet normal 0 -0 -1
    outer loop
      vertex -35.0583 -42.3782 0
      vertex -32.3282 -44.4959 0
      vertex -325 -325 0
    endloop
  endfacet
  facet normal 0 -0 -1
    outer loop
      vertex -37.6501 -40.0933 0
      vertex -35.0583 -42.3782 0
      vertex -325 -325 0
    endloop
  endfacet
  facet normal 0 -0 -1
    outer loop
      vertex -40.0933 -37.6501 0
      vertex -37.6501 -40.0933 0
      vertex -325 -325 0
    endloop
  endfacet
  facet normal 0 -0 -1
    outer loop
      vertex -44.4959 -32.3282 0
      vertex -42.3782 -35.0583 0
      vertex -325 -325 0
    endloop
  endfacet
  facet normal 0 -0 -1
    outer loop
      vertex -42.3782 -35.0583 0
      vertex -40.0933 -37.6501 0
      vertex -325 -325 0
    endloop
  endfacet
  facet normal 0 -0 -1
    outer loop
      vertex -46.438 -29.4705 0
      vertex -44.4959 -32.3282 0
      vertex -325 -325 0
    endloop
  endfacet
  facet normal 0 -0 -1
    outer loop
      vertex -48.1969 -26.4965 0
      vertex -46.438 -29.4705 0
      vertex -325 -325 0
    endloop
  endfacet
  facet normal 0 -0 -1
    outer loop
      vertex -49.7655 -23.4179 0
      vertex -48.1969 -26.4965 0
      vertex -325 -325 0
    endloop
  endfacet
  facet normal 0 -0 -1
    outer loop
      vertex -51.1377 -20.2469 0
      vertex -49.7655 -23.4179 0
      vertex -325 -325 0
    endloop
  endfacet
  facet normal 0 -0 -1
    outer loop
      vertex -52.3081 -16.9959 0
      vertex -51.1377 -20.2469 0
      vertex -325 -325 0
    endloop
  endfacet
  facet normal 0 -0 -1
    outer loop
      vertex -53.2721 -13.6779 0
      vertex -52.3081 -16.9959 0
      vertex -325 -325 0
    endloop
  endfacet
  facet normal 0 -0 -1
    outer loop
      vertex -54.0258 -10.306 0
      vertex -53.2721 -13.6779 0
      vertex -325 -325 0
    endloop
  endfacet
  facet normal 0 -0 -1
    outer loop
      vertex -54.5663 -6.89333 0
      vertex -54.0258 -10.306 0
      vertex -325 -325 0
    endloop
  endfacet
  facet normal 0 -0 -1
    outer loop
      vertex -54.8915 -3.45348 0
      vertex -54.5663 -6.89333 0
      vertex -325 -325 0
    endloop
  endfacet
  facet normal 0 -0 -1
    outer loop
      vertex -55 0 0
      vertex -54.8915 -3.45348 0
      vertex -325 -325 0
    endloop
  endfacet
  facet normal 0 0 -1
    outer loop
      vertex -325 325 0
      vertex -55 0 0
      vertex -325 -325 0
    endloop
  endfacet
  facet normal 0 0 -1
    outer loop
      vertex -325 325 0
      vertex -54.8915 3.45348 0
      vertex -55 0 0
    endloop
  endfacet
  facet normal 0 0 -1
    outer loop
      vertex -325 325 0
      vertex -54.5663 6.89333 0
      vertex -54.8915 3.45348 0
    endloop
  endfacet
  facet normal 0 0 -1
    outer loop
      vertex -325 325 0
      vertex -54.0258 10.306 0
      vertex -54.5663 6.89333 0
    endloop
  endfacet
  facet normal 0 0 -1
    outer loop
      vertex -325 325 0
      vertex -53.2721 13.6779 0
      vertex -54.0258 10.306 0
    endloop
  endfacet
  facet normal 0 0 -1
    outer loop
      vertex -325 325 0
      vertex -52.3081 16.9959 0
      vertex -53.2721 13.6779 0
    endloop
  endfacet
  facet normal 0 0 -1
    outer loop
      vertex -325 325 0
      vertex -51.1377 20.2469 0
      vertex -52.3081 16.9959 0
    endloop
  endfacet
  facet normal 0 0 -1
    outer loop
      vertex -325 325 0
      vertex -49.7655 23.4179 0
      vertex -51.1377 20.2469 0
    endloop
  endfacet
  facet normal 0 0 -1
    outer loop
      vertex -325 325 0
      vertex -48.1969 26.4965 0
      vertex -49.7655 23.4179 0
    endloop
  endfacet
  facet normal 0 0 -1
    outer loop
      vertex -325 325 0
      vertex -46.438 29.4705 0
      vertex -48.1969 26.4965 0
    endloop
  endfacet
  facet normal 0 0 -1
    outer loop
      vertex -325 325 0
      vertex -44.4959 32.3282 0
      vertex -46.438 29.4705 0
    endloop
  endfacet
  facet normal 0 0 -1
    outer loop
      vertex -325 325 0
      vertex -42.3782 35.0583 0
      vertex -44.4959 32.3282 0
    endloop
  endfacet
  facet normal 0 0 -1
    outer loop
      vertex -325 325 0
      vertex -40.0933 37.6501 0
      vertex -42.3782 35.0583 0
    endloop
  endfacet
  facet normal 0 0 -1
    outer loop
      vertex -325 325 0
      vertex -37.6501 40.0933 0
      vertex -40.0933 37.6501 0
    endloop
  endfacet
  facet normal 0 0 -1
    outer loop
      vertex -325 325 0
      vertex -35.0583 42.3782 0
      vertex -37.6501 40.0933 0
    endloop
  endfacet
  facet normal -0 0 -1
    outer loop
      vertex -29.4705 46.438 0
      vertex -32.3282 44.4959 0
      vertex -325 325 0
    endloop
  endfacet
  facet normal -0 0 -1
    outer loop
      vertex -26.4965 48.1969 0
      vertex -29.4705 46.438 0
      vertex -325 325 0
    endloop
  endfacet
  facet normal -0 0 -1
    outer loop
      vertex -23.4179 49.7655 0
      vertex -26.4965 48.1969 0
      vertex -325 325 0
    endloop
  endfacet
  facet normal -0 0 -1
    outer loop
      vertex -20.2469 51.1377 0
      vertex -23.4179 49.7655 0
      vertex -325 325 0
    endloop
  endfacet
  facet normal -0 0 -1
    outer loop
      vertex -16.9959 52.3081 0
      vertex -20.2469 51.1377 0
      vertex -325 325 0
    endloop
  endfacet
  facet normal -0 0 -1
    outer loop
      vertex -13.6779 53.2721 0
      vertex -16.9959 52.3081 0
      vertex -325 325 0
    endloop
  endfacet
  facet normal -0 0 -1
    outer loop
      vertex -10.306 54.0258 0
      vertex -13.6779 53.2721 0
      vertex -325 325 0
    endloop
  endfacet
  facet normal -0 0 -1
    outer loop
      vertex -6.89333 54.5663 0
      vertex -10.306 54.0258 0
      vertex -325 325 0
    endloop
  endfacet
  facet normal -0 0 -1
    outer loop
      vertex -3.45348 54.8915 0
      vertex -6.89333 54.5663 0
      vertex -325 325 0
    endloop
  endfacet
  facet normal -0 0 -1
    outer loop
      vertex 0 55 0
      vertex -3.45348 54.8915 0
      vertex -325 325 0
    endloop
  endfacet
  facet normal -0 0 -1
    outer loop
      vertex 325 325 0
      vertex 0 55 0
      vertex -325 325 0
    endloop
  endfacet
  facet normal 0 0 -1
    outer loop
      vertex 325 325 0
      vertex 3.45348 54.8915 0
      vertex 0 55 0
    endloop
  endfacet
  facet normal 0 0 -1
    outer loop
      vertex 325 325 0
      vertex 6.89333 54.5663 0
      vertex 3.45348 54.8915 0
    endloop
  endfacet
  facet normal 0 0 -1
    outer loop
      vertex 325 325 0
      vertex 10.306 54.0258 0
      vertex 6.89333 54.5663 0
    endloop
  endfacet
  facet normal 0 0 -1
    outer loop
      vertex 325 325 0
      vertex 13.6779 53.2721 0
      vertex 10.306 54.0258 0
    endloop
  endfacet
  facet normal 0 0 -1
    outer loop
      vertex 325 325 0
      vertex 16.9959 52.3081 0
      vertex 13.6779 53.2721 0
    endloop
  endfacet
  facet normal 0 0 -1
    outer loop
      vertex 325 325 0
      vertex 20.2469 51.1377 0
      vertex 16.9959 52.3081 0
    endloop
  endfacet
  facet normal 0 0 -1
    outer loop
      vertex 325 325 0
      vertex 23.4179 49.7655 0
      vertex 20.2469 51.1377 0
    endloop
  endfacet
  facet normal 0 0 -1
    outer loop
      vertex 325 325 0
      vertex 26.4965 48.1969 0
      vertex 23.4179 49.7655 0
    endloop
  endfacet
  facet normal 0 0 -1
    outer loop
      vertex 325 325 0
      vertex 29.4705 46.438 0
      vertex 26.4965 48.1969 0
    endloop
  endfacet
  facet normal 0 0 -1
    outer loop
      vertex 325 325 0
      vertex 32.3282 44.4959 0
      vertex 29.4705 46.438 0
    endloop
  endfacet
  facet normal 0 0 -1
    outer loop
      vertex 325 325 0
      vertex 35.0583 42.3782 0
      vertex 32.3282 44.4959 0
    endloop
  endfacet
  facet normal 0 0 -1
    outer loop
      vertex 325 325 0
      vertex 37.6501 40.0933 0
      vertex 35.0583 42.3782 0
    endloop
  endfacet
  facet normal 0 0 -1
    outer loop
      vertex 325 325 0
      vertex 40.0933 37.6501 0
      vertex 37.6501 40.0933 0
    endloop
  endfacet
  facet normal 0 0 -1
    outer loop
      vertex 325 325 0
      vertex 42.3782 35.0583 0
      vertex 40.0933 37.6501 0
    endloop
  endfacet
  facet normal 0 0 -1
    outer loop
      vertex 46.438 29.4705 0
      vertex 44.4959 32.3282 0
      vertex 325 325 0
    endloop
  endfacet
  facet normal 0 0 -1
    outer loop
      vertex 48.1969 26.4965 0
      vertex 46.438 29.4705 0
      vertex 325 325 0
    endloop
  endfacet
  facet normal 0 0 -1
    outer loop
      vertex 49.7655 23.4179 0
      vertex 48.1969 26.4965 0
      vertex 325 325 0
    endloop
  endfacet
  facet normal 0 0 -1
    outer loop
      vertex 51.1377 20.2469 0
      vertex 49.7655 23.4179 0
      vertex 325 325 0
    endloop
  endfacet
  facet normal 0 0 -1
    outer loop
      vertex 52.3081 16.9959 0
      vertex 51.1377 20.2469 0
      vertex 325 325 0
    endloop
  endfacet
  facet normal 0 0 -1
    outer loop
      vertex 53.2721 13.6779 0
      vertex 52.3081 16.9959 0
      vertex 325 325 0
    endloop
  endfacet
  facet normal 0 0 -1
    outer loop
      vertex 54.0258 10.306 0
      vertex 53.2721 13.6779 0
      vertex 325 325 0
    endloop
  endfacet
  facet normal 0 0 -1
    outer loop
      vertex 54.5663 6.89333 0
      vertex 54.0258 10.306 0
      vertex 325 325 0
    endloop
  endfacet
  facet normal 0 0 -1
    outer loop
      vertex 54.8915 3.45348 0
      vertex 54.5663 6.89333 0
      vertex 325 325 0
    endloop
  endfacet
  facet normal 0 0 -1
    outer loop
      vertex 55 0 0
      vertex 54.8915 3.45348 0
      vertex 325 325 0
    endloop
  endfacet
  facet normal 0 0 -1
    outer loop
      vertex 325 -325 0
      vertex 55 0 0
      vertex 325 325 0
    endloop
  endfacet
  facet normal 0 0 -1
    outer loop
      vertex 325 -325 0
      vertex 54.8915 -3.45348 0
      vertex 55 0 0
    endloop
  endfacet
  facet normal 0 0 -1
    outer loop
      vertex 325 -325 0
      vertex 54.5663 -6.89333 0
      vertex 54.8915 -3.45348 0
    endloop
  endfacet
  facet normal 0 0 -1
    outer loop
      vertex 325 -325 0
      vertex 54.0258 -10.306 0
      vertex 54.5663 -6.89333 0
    endloop
  endfacet
  facet normal 0 0 -1
    outer loop
      vertex 325 -325 0
      vertex 53.2721 -13.6779 0
      vertex 54.0258 -10.306 0
    endloop
  endfacet
  facet normal 0 0 -1
    outer loop
      vertex 325 -325 0
      vertex 52.3081 -16.9959 0
      vertex 53.2721 -13.6779 0
    endloop
  endfacet
  facet normal 0 0 -1
    outer loop
      vertex 325 -325 0
      vertex 51.1377 -20.2469 0
      vertex 52.3081 -16.9959 0
    endloop
  endfacet
  facet normal 0 0 -1
    outer loop
      vertex 325 -325 0
      vertex 49.7655 -23.4179 0
      vertex 51.1377 -20.2469 0
    endloop
  endfacet
  facet normal 0 0 -1
    outer loop
      vertex 325 -325 0
      vertex 48.1969 -26.4965 0
      vertex 49.7655 -23.4179 0
    endloop
  endfacet
  facet normal 0 0 -1
    outer loop
      vertex 325 -325 0
      vertex 46.438 -29.4705 0
      vertex 48.1969 -26.4965 0
    endloop
  endfacet
  facet normal 0 0 -1
    outer loop
      vertex 325 -325 0
      vertex 44.4959 -32.3282 0
      vertex 46.438 -29.4705 0
    endloop
  endfacet
  facet normal 0 0 -1
    outer loop
      vertex 325 -325 0
      vertex 42.3782 -35.0583 0
      vertex 44.4959 -32.3282 0
    endloop
  endfacet
  facet normal 0 0 -1
    outer loop
      vertex 325 -325 0
      vertex 40.0933 -37.6501 0
      vertex 42.3782 -35.0583 0
    endloop
  endfacet
  facet normal 0 0 -1
    outer loop
      vertex 325 -325 0
      vertex 37.6501 -40.0933 0
      vertex 40.0933 -37.6501 0
    endloop
  endfacet
  facet normal 0 0 -1
    outer loop
      vertex 325 -325 0
      vertex 35.0583 -42.3782 0
      vertex 37.6501 -40.0933 0
    endloop
  endfacet
  facet normal 0 0 -1
    outer loop
      vertex 325 -325 0
      vertex 32.3282 -44.4959 0
      vertex 35.0583 -42.3782 0
    endloop
  endfacet
  facet normal 0 0 -1
    outer loop
      vertex 325 -325 0
      vertex 29.4705 -46.438 0
      vertex 32.3282 -44.4959 0
    endloop
  endfacet
  facet normal 0 0 -1
    outer loop
      vertex 325 -325 0
      vertex 26.4965 -48.1969 0
      vertex 29.4705 -46.438 0
    endloop
  endfacet
  facet normal 0 0 -1
    outer loop
      vertex 325 -325 0
      vertex 23.4179 -49.7655 0
      vertex 26.4965 -48.1969 0
    endloop
  endfacet
  facet normal 0 0 -1
    outer loop
      vertex 325 -325 0
      vertex 20.2469 -51.1377 0
      vertex 23.4179 -49.7655 0
    endloop
  endfacet
  facet normal 0 0 -1
    outer loop
      vertex 325 -325 0
      vertex 16.9959 -52.3081 0
      vertex 20.2469 -51.1377 0
    endloop
  endfacet
  facet normal 0 0 -1
    outer loop
      vertex 325 -325 0
      vertex 13.6779 -53.2721 0
      vertex 16.9959 -52.3081 0
    endloop
  endfacet
  facet normal 0 0 -1
    outer loop
      vertex 325 -325 0
      vertex 10.306 -54.0258 0
      vertex 13.6779 -53.2721 0
    endloop
  endfacet
  facet normal 0 0 -1
    outer loop
      vertex 325 -325 0
      vertex 6.89333 -54.5663 0
      vertex 10.306 -54.0258 0
    endloop
  endfacet
  facet normal 0 0 -1
    outer loop
      vertex 325 -325 0
      vertex 3.45348 -54.8915 0
      vertex 6.89333 -54.5663 0
    endloop
  endfacet
  facet normal 0 1 0
    outer loop
      vertex -325 325 0
      vertex 325 325 8
      vertex 325 325 0
    endloop
  endfacet
  facet normal 0 1 0
    outer loop
      vertex -325 325 0
      vertex -325 325 8
      vertex 325 325 8
    endloop
  endfacet
  facet normal -1 0 0
    outer loop
      vertex -325 -325 0
      vertex -325 325 8
      vertex -325 325 0
    endloop
  endfacet
  facet normal -1 0 0
    outer loop
      vertex -325 -325 0
      vertex -325 -325 8
      vertex -325 325 8
    endloop
  endfacet
  facet normal 0 -1 0
    outer loop
      vertex 325 -325 0
      vertex -325 -325 8
      vertex -325 -325 0
    endloop
  endfacet
  facet normal 0 -1 0
    outer loop
      vertex 325 -325 0
      vertex 325 -325 8
      vertex -325 -325 8
    endloop
  endfacet
  facet normal 1 0 0
    outer loop
      vertex 325 325 0
      vertex 325 -325 8
      vertex 325 -325 0
    endloop
  endfacet
  facet normal 1 0 -0
    outer loop
      vertex 325 325 0
      vertex 325 325 8
      vertex 325 -325 8
    endloop
  endfacet
  facet normal 0.0941193 0.995561 -0
    outer loop
      vertex -6.89333 -54.5663 0
      vertex -6.89333 -54.5663 8
      vertex -3.45348 -54.8915 0
    endloop
  endfacet
  facet normal 0.0941193 0.995561 0
    outer loop
      vertex -3.45348 -54.8915 8
      vertex -3.45348 -54.8915 0
      vertex -6.89333 -54.5663 8
    endloop
  endfacet
  facet normal 0.156431 0.987689 -0
    outer loop
      vertex -10.306 -54.0258 0
      vertex -10.306 -54.0258 8
      vertex -6.89333 -54.5663 0
    endloop
  endfacet
  facet normal 0.156431 0.987689 0
    outer loop
      vertex -6.89333 -54.5663 8
      vertex -6.89333 -54.5663 0
      vertex -10.306 -54.0258 8
    endloop
  endfacet
  facet normal 0.218141 0.975917 -0
    outer loop
      vertex -13.6779 -53.2721 0
      vertex -13.6779 -53.2721 8
      vertex -10.306 -54.0258 0
    endloop
  endfacet
  facet normal 0.218141 0.975917 0
    outer loop
      vertex -10.306 -54.0258 8
      vertex -10.306 -54.0258 0
      vertex -13.6779 -53.2721 8
    endloop
  endfacet
  facet normal 0.279 0.960291 -0
    outer loop
      vertex -16.9959 -52.3081 0
      vertex -16.9959 -52.3081 8
      vertex -13.6779 -53.2721 0
    endloop
  endfacet
  facet normal 0.279 0.960291 0
    outer loop
      vertex -13.6779 -53.2721 8
      vertex -13.6779 -53.2721 0
      vertex -16.9959 -52.3081 8
    endloop
  endfacet
  facet normal 0.33873 0.940884 -0
    outer loop
      vertex -20.2469 -51.1377 0
      vertex -20.2469 -51.1377 8
      vertex -16.9959 -52.3081 0
    endloop
  endfacet
  facet normal 0.33873 0.940884 0
    outer loop
      vertex -16.9959 -52.3081 8
      vertex -16.9959 -52.3081 0
      vertex -20.2469 -51.1377 8
    endloop
  endfacet
  facet normal 0.397144 0.917756 -0
    outer loop
      vertex -23.4179 -49.7655 0
      vertex -23.4179 -49.7655 8
      vertex -20.2469 -51.1377 0
    endloop
  endfacet
  facet normal 0.397144 0.917756 0
    outer loop
      vertex -20.2469 -51.1377 8
      vertex -20.2469 -51.1377 0
      vertex -23.4179 -49.7655 8
    endloop
  endfacet
  facet normal 0.453985 0.891009 -0
    outer loop
      vertex -26.4965 -48.1969 0
      vertex -26.4965 -48.1969 8
      vertex -23.4179 -49.7655 0
    endloop
  endfacet
  facet normal 0.453985 0.891009 0
    outer loop
      vertex -23.4179 -49.7655 8
      vertex -23.4179 -49.7655 0
      vertex -26.4965 -48.1969 8
    endloop
  endfacet
  facet normal 0.509059 0.860732 -0
    outer loop
      vertex -29.4705 -46.438 0
      vertex -29.4705 -46.438 8
      vertex -26.4965 -48.1969 0
    endloop
  endfacet
  facet normal 0.509059 0.860732 0
    outer loop
      vertex -26.4965 -48.1969 8
      vertex -26.4965 -48.1969 0
      vertex -29.4705 -46.438 8
    endloop
  endfacet
  facet normal 0.562085 0.827079 -0
    outer loop
      vertex -32.3282 -44.4959 0
      vertex -32.3282 -44.4959 8
      vertex -29.4705 -46.438 0
    endloop
  endfacet
  facet normal 0.562085 0.827079 0
    outer loop
      vertex -29.4705 -46.438 8
      vertex -29.4705 -46.438 0
      vertex -32.3282 -44.4959 8
    endloop
  endfacet
  facet normal 0.61291 0.790153 -0
    outer loop
      vertex -35.0583 -42.3782 0
      vertex -35.0583 -42.3782 8
      vertex -32.3282 -44.4959 0
    endloop
  endfacet
  facet normal 0.61291 0.790153 0
    outer loop
      vertex -32.3282 -44.4959 8
      vertex -32.3282 -44.4959 0
      vertex -35.0583 -42.3782 8
    endloop
  endfacet
  facet normal 0.661299 0.750122 -0
    outer loop
      vertex -37.6501 -40.0933 0
      vertex -37.6501 -40.0933 8
      vertex -35.0583 -42.3782 0
    endloop
  endfacet
  facet normal 0.661299 0.750122 0
    outer loop
      vertex -35.0583 -42.3782 8
      vertex -35.0583 -42.3782 0
      vertex -37.6501 -40.0933 8
    endloop
  endfacet
  facet normal 0.707107 0.707107 -0
    outer loop
      vertex -40.0933 -37.6501 0
      vertex -40.0933 -37.6501 8
      vertex -37.6501 -40.0933 0
    endloop
  endfacet
  facet normal 0.707107 0.707107 0
    outer loop
      vertex -37.6501 -40.0933 8
      vertex -37.6501 -40.0933 0
      vertex -40.0933 -37.6501 8
    endloop
  endfacet
  facet normal 0.750122 0.661299 -0
    outer loop
      vertex -42.3782 -35.0583 0
      vertex -42.3782 -35.0583 8
      vertex -40.0933 -37.6501 0
    endloop
  endfacet
  facet normal 0.750122 0.661299 0
    outer loop
      vertex -40.0933 -37.6501 8
      vertex -40.0933 -37.6501 0
      vertex -42.3782 -35.0583 8
    endloop
  endfacet
  facet normal 0.790153 0.61291 -0
    outer loop
      vertex -44.4959 -32.3282 0
      vertex -44.4959 -32.3282 8
      vertex -42.3782 -35.0583 0
    endloop
  endfacet
  facet normal 0.790153 0.61291 0
    outer loop
      vertex -42.3782 -35.0583 8
      vertex -42.3782 -35.0583 0
      vertex -44.4959 -32.3282 8
    endloop
  endfacet
  facet normal 0.827079 0.562085 -0
    outer loop
      vertex -46.438 -29.4705 0
      vertex -46.438 -29.4705 8
      vertex -44.4959 -32.3282 0
    endloop
  endfacet
  facet normal 0.827079 0.562085 0
    outer loop
      vertex -44.4959 -32.3282 8
      vertex -44.4959 -32.3282 0
      vertex -46.438 -29.4705 8
    endloop
  endfacet
  facet normal 0.860732 0.509059 -0
    outer loop
      vertex -48.1969 -26.4965 0
      vertex -48.1969 -26.4965 8
      vertex -46.438 -29.4705 0
    endloop
  endfacet
  facet normal 0.860732 0.509059 0
    outer loop
      vertex -46.438 -29.4705 8
      vertex -46.438 -29.4705 0
      vertex -48.1969 -26.4965 8
    endloop
  endfacet
  facet normal 0.891009 0.453985 -0
    outer loop
      vertex -49.7655 -23.4179 0
      vertex -49.7655 -23.4179 8
      vertex -48.1969 -26.4965 0
    endloop
  endfacet
  facet normal 0.891009 0.453985 0
    outer loop
      vertex -48.1969 -26.4965 8
      vertex -48.1969 -26.4965 0
      vertex -49.7655 -23.4179 8
    endloop
  endfacet
  facet normal 0.917756 0.397144 -0
    outer loop
      vertex -51.1377 -20.2469 0
      vertex -51.1377 -20.2469 8
      vertex -49.7655 -23.4179 0
    endloop
  endfacet
  facet normal 0.917756 0.397144 0
    outer loop
      vertex -49.7655 -23.4179 8
      vertex -49.7655 -23.4179 0
      vertex -51.1377 -20.2469 8
    endloop
  endfacet
  facet normal 0.940884 0.33873 -0
    outer loop
      vertex -52.3081 -16.9959 0
      vertex -52.3081 -16.9959 8
      vertex -51.1377 -20.2469 0
    endloop
  endfacet
  facet normal 0.940884 0.33873 0
    outer loop
      vertex -51.1377 -20.2469 8
      vertex -51.1377 -20.2469 0
      vertex -52.3081 -16.9959 8
    endloop
  endfacet
  facet normal 0.960291 0.279 -0
    outer loop
      vertex -53.2721 -13.6779 0
      vertex -53.2721 -13.6779 8
      vertex -52.3081 -16.9959 0
    endloop
  endfacet
  facet normal 0.960291 0.279 0
    outer loop
      vertex -52.3081 -16.9959 8
      vertex -52.3081 -16.9959 0
      vertex -53.2721 -13.6779 8
    endloop
  endfacet
  facet normal 0.975917 0.218141 -0
    outer loop
      vertex -54.0258 -10.306 0
      vertex -54.0258 -10.306 8
      vertex -53.2721 -13.6779 0
    endloop
  endfacet
  facet normal 0.975917 0.218141 0
    outer loop
      vertex -53.2721 -13.6779 8
      vertex -53.2721 -13.6779 0
      vertex -54.0258 -10.306 8
    endloop
  endfacet
  facet normal 0.987689 0.156431 -0
    outer loop
      vertex -54.5663 -6.89333 0
      vertex -54.5663 -6.89333 8
      vertex -54.0258 -10.306 0
    endloop
  endfacet
  facet normal 0.987689 0.156431 0
    outer loop
      vertex -54.0258 -10.306 8
      vertex -54.0258 -10.306 0
      vertex -54.5663 -6.89333 8
    endloop
  endfacet
  facet normal 0.995561 0.0941193 -0
    outer loop
      vertex -54.8915 -3.45348 0
      vertex -54.8915 -3.45348 8
      vertex -54.5663 -6.89333 0
    endloop
  endfacet
  facet normal 0.995561 0.0941193 0
    outer loop
      vertex -54.5663 -6.89333 8
      vertex -54.5663 -6.89333 0
      vertex -54.8915 -3.45348 8
    endloop
  endfacet
  facet normal 0.999507 0.0314021 -0
    outer loop
      vertex -55 0 0
      vertex -55 0 8
      vertex -54.8915 -3.45348 0
    endloop
  endfacet
  facet normal 0.999507 0.0314021 0
    outer loop
      vertex -54.8915 -3.45348 8
      vertex -54.8915 -3.45348 0
      vertex -55 0 8
    endloop
  endfacet
  facet normal 0.999507 -0.0314021 0
    outer loop
      vertex -54.8915 3.45348 0
      vertex -54.8915 3.45348 8
      vertex -55 0 0
    endloop
  endfacet
  facet normal 0.999507 -0.0314021 0
    outer loop
      vertex -55 0 8
      vertex -55 0 0
      vertex -54.8915 3.45348 8
    endloop
  endfacet
  facet normal 0.995561 -0.0941193 0
    outer loop
      vertex -54.5663 6.89333 0
      vertex -54.5663 6.89333 8
      vertex -54.8915 3.45348 0
    endloop
  endfacet
  facet normal 0.995561 -0.0941193 0
    outer loop
      vertex -54.8915 3.45348 8
      vertex -54.8915 3.45348 0
      vertex -54.5663 6.89333 8
    endloop
  endfacet
  facet normal 0.987689 -0.156431 0
    outer loop
      vertex -54.0258 10.306 0
      vertex -54.0258 10.306 8
      vertex -54.5663 6.89333 0
    endloop
  endfacet
  facet normal 0.987689 -0.156431 0
    outer loop
      vertex -54.5663 6.89333 8
      vertex -54.5663 6.89333 0
      vertex -54.0258 10.306 8
    endloop
  endfacet
  facet normal 0.975917 -0.218141 0
    outer loop
      vertex -53.2721 13.6779 0
      vertex -53.2721 13.6779 8
      vertex -54.0258 10.306 0
    endloop
  endfacet
  facet normal 0.975917 -0.218141 0
    outer loop
      vertex -54.0258 10.306 8
      vertex -54.0258 10.306 0
      vertex -53.2721 13.6779 8
    endloop
  endfacet
  facet normal 0.960291 -0.279 0
    outer loop
      vertex -52.3081 16.9959 0
      vertex -52.3081 16.9959 8
      vertex -53.2721 13.6779 0
    endloop
  endfacet
  facet normal 0.960291 -0.279 0
    outer loop
      vertex -53.2721 13.6779 8
      vertex -53.2721 13.6779 0
      vertex -52.3081 16.9959 8
    endloop
  endfacet
  facet normal 0.940884 -0.33873 0
    outer loop
      vertex -51.1377 20.2469 0
      vertex -51.1377 20.2469 8
      vertex -52.3081 16.9959 0
    endloop
  endfacet
  facet normal 0.940884 -0.33873 0
    outer loop
      vertex -52.3081 16.9959 8
      vertex -52.3081 16.9959 0
      vertex -51.1377 20.2469 8
    endloop
  endfacet
  facet normal 0.917756 -0.397144 0
    outer loop
      vertex -49.7655 23.4179 0
      vertex -49.7655 23.4179 8
      vertex -51.1377 20.2469 0
    endloop
  endfacet
  facet normal 0.917756 -0.397144 0
    outer loop
      vertex -51.1377 20.2469 8
      vertex -51.1377 20.2469 0
      vertex -49.7655 23.4179 8
    endloop
  endfacet
  facet normal 0.891009 -0.453985 0
    outer loop
      vertex -48.1969 26.4965 0
      vertex -48.1969 26.4965 8
      vertex -49.7655 23.4179 0
    endloop
  endfacet
  facet normal 0.891009 -0.453985 0
    outer loop
      vertex -49.7655 23.4179 8
      vertex -49.7655 23.4179 0
      vertex -48.1969 26.4965 8
    endloop
  endfacet
  facet normal 0.860732 -0.509059 0
    outer loop
      vertex -46.438 29.4705 0
      vertex -46.438 29.4705 8
      vertex -48.1969 26.4965 0
    endloop
  endfacet
  facet normal 0.860732 -0.509059 0
    outer loop
      vertex -48.1969 26.4965 8
      vertex -48.1969 26.4965 0
      vertex -46.438 29.4705 8
    endloop
  endfacet
  facet normal 0.827079 -0.562085 0
    outer loop
      vertex -44.4959 32.3282 0
      vertex -44.4959 32.3282 8
      vertex -46.438 29.4705 0
    endloop
  endfacet
  facet normal 0.827079 -0.562085 0
    outer loop
      vertex -46.438 29.4705 8
      vertex -46.438 29.4705 0
      vertex -44.4959 32.3282 8
    endloop
  endfacet
  facet normal 0.790153 -0.61291 0
    outer loop
      vertex -42.3782 35.0583 0
      vertex -42.3782 35.0583 8
      vertex -44.4959 32.3282 0
    endloop
  endfacet
  facet normal 0.790153 -0.61291 0
    outer loop
      vertex -44.4959 32.3282 8
      vertex -44.4959 32.3282 0
      vertex -42.3782 35.0583 8
    endloop
  endfacet
  facet normal 0.750122 -0.661299 0
    outer loop
      vertex -40.0933 37.6501 0
      vertex -40.0933 37.6501 8
      vertex -42.3782 35.0583 0
    endloop
  endfacet
  facet normal 0.750122 -0.661299 0
    outer loop
      vertex -42.3782 35.0583 8
      vertex -42.3782 35.0583 0
      vertex -40.0933 37.6501 8
    endloop
  endfacet
  facet normal 0.707107 -0.707107 0
    outer loop
      vertex -37.6501 40.0933 0
      vertex -37.6501 40.0933 8
      vertex -40.0933 37.6501 0
    endloop
  endfacet
  facet normal 0.707107 -0.707107 0
    outer loop
      vertex -40.0933 37.6501 8
      vertex -40.0933 37.6501 0
      vertex -37.6501 40.0933 8
    endloop
  endfacet
  facet normal 0.661299 -0.750122 0
    outer loop
      vertex -35.0583 42.3782 0
      vertex -35.0583 42.3782 8
      vertex -37.6501 40.0933 0
    endloop
  endfacet
  facet normal 0.661299 -0.750122 0
    outer loop
      vertex -37.6501 40.0933 8
      vertex -37.6501 40.0933 0
      vertex -35.0583 42.3782 8
    endloop
  endfacet
  facet normal 0.61291 -0.790153 0
    outer loop
      vertex -32.3282 44.4959 0
      vertex -32.3282 44.4959 8
      vertex -35.0583 42.3782 0
    endloop
  endfacet
  facet normal 0.61291 -0.790153 0
    outer loop
      vertex -35.0583 42.3782 8
      vertex -35.0583 42.3782 0
      vertex -32.3282 44.4959 8
    endloop
  endfacet
  facet normal 0.562085 -0.827079 0
    outer loop
      vertex -29.4705 46.438 0
      vertex -29.4705 46.438 8
      vertex -32.3282 44.4959 0
    endloop
  endfacet
  facet normal 0.562085 -0.827079 0
    outer loop
      vertex -32.3282 44.4959 8
      vertex -32.3282 44.4959 0
      vertex -29.4705 46.438 8
    endloop
  endfacet
  facet normal 0.509059 -0.860732 0
    outer loop
      vertex -26.4965 48.1969 0
      vertex -26.4965 48.1969 8
      vertex -29.4705 46.438 0
    endloop
  endfacet
  facet normal 0.509059 -0.860732 0
    outer loop
      vertex -29.4705 46.438 8
      vertex -29.4705 46.438 0
      vertex -26.4965 48.1969 8
    endloop
  endfacet
  facet normal 0.453985 -0.891009 0
    outer loop
      vertex -23.4179 49.7655 0
      vertex -23.4179 49.7655 8
      vertex -26.4965 48.1969 0
    endloop
  endfacet
  facet normal 0.453985 -0.891009 0
    outer loop
      vertex -26.4965 48.1969 8
      vertex -26.4965 48.1969 0
      vertex -23.4179 49.7655 8
    endloop
  endfacet
  facet normal 0.397144 -0.917756 0
    outer loop
      vertex -20.2469 51.1377 0
      vertex -20.2469 51.1377 8
      vertex -23.4179 49.7655 0
    endloop
  endfacet
  facet normal 0.397144 -0.917756 0
    outer loop
      vertex -23.4179 49.7655 8
      vertex -23.4179 49.7655 0
      vertex -20.2469 51.1377 8
    endloop
  endfacet
  facet normal 0.33873 -0.940884 0
    outer loop
      vertex -16.9959 52.3081 0
      vertex -16.9959 52.3081 8
      vertex -20.2469 51.1377 0
    endloop
  endfacet
  facet normal 0.33873 -0.940884 0
    outer loop
      vertex -20.2469 51.1377 8
      vertex -20.2469 51.1377 0
      vertex -16.9959 52.3081 8
    endloop
  endfacet
  facet normal 0.279 -0.960291 0
    outer loop
      vertex -13.6779 53.2721 0
      vertex -13.6779 53.2721 8
      vertex -16.9959 52.3081 0
    endloop
  endfacet
  facet normal 0.279 -0.960291 0
    outer loop
      vertex -16.9959 52.3081 8
      vertex -16.9959 52.3081 0
      vertex -13.6779 53.2721 8
    endloop
  endfacet
  facet normal 0.218141 -0.975917 0
    outer loop
      vertex -10.306 54.0258 0
      vertex -10.306 54.0258 8
      vertex -13.6779 53.2721 0
    endloop
  endfacet
  facet normal 0.218141 -0.975917 0
    outer loop
      vertex -13.6779 53.2721 8
      vertex -13.6779 53.2721 0
      vertex -10.306 54.0258 8
    endloop
  endfacet
  facet normal 0.156431 -0.987689 0
    outer loop
      vertex -6.89333 54.5663 0
      vertex -6.89333 54.5663 8
      vertex -10.306 54.0258 0
    endloop
  endfacet
  facet normal 0.156431 -0.987689 0
    outer loop
      vertex -10.306 54.0258 8
      vertex -10.306 54.0258 0
      vertex -6.89333 54.5663 8
    endloop
  endfacet
  facet normal 0.0941193 -0.995561 0
    outer loop
      vertex -3.45348 54.8915 0
      vertex -3.45348 54.8915 8
      vertex -6.89333 54.5663 0
    endloop
  endfacet
  facet normal 0.0941193 -0.995561 0
    outer loop
      vertex -6.89333 54.5663 8
      vertex -6.89333 54.5663 0
      vertex -3.45348 54.8915 8
    endloop
  endfacet
  facet normal 0.0314021 -0.999507 0
    outer loop
      vertex 0 55 0
      vertex 0 55 8
      vertex -3.45348 54.8915 0
    endloop
  endfacet
  facet normal 0.0314021 -0.999507 0
    outer loop
      vertex -3.45348 54.8915 8
      vertex -3.45348 54.8915 0
      vertex 0 55 8
    endloop
  endfacet
  facet normal -0.0314021 -0.999507 0
    outer loop
      vertex 3.45348 54.8915 0
      vertex 3.45348 54.8915 8
      vertex 0 55 0
    endloop
  endfacet
  facet normal -0.0314021 -0.999507 -0
    outer loop
      vertex 0 55 8
      vertex 0 55 0
      vertex 3.45348 54.8915 8
    endloop
  endfacet
  facet normal -0.0941193 -0.995561 0
    outer loop
      vertex 6.89333 54.5663 0
      vertex 6.89333 54.5663 8
      vertex 3.45348 54.8915 0
    endloop
  endfacet
  facet normal -0.0941193 -0.995561 -0
    outer loop
      vertex 3.45348 54.8915 8
      vertex 3.45348 54.8915 0
      vertex 6.89333 54.5663 8
    endloop
  endfacet
  facet normal -0.156431 -0.987689 0
    outer loop
      vertex 10.306 54.0258 0
      vertex 10.306 54.0258 8
      vertex 6.89333 54.5663 0
    endloop
  endfacet
  facet normal -0.156431 -0.987689 -0
    outer loop
      vertex 6.89333 54.5663 8
      vertex 6.89333 54.5663 0
      vertex 10.306 54.0258 8
    endloop
  endfacet
  facet normal -0.218141 -0.975917 0
    outer loop
      vertex 13.6779 53.2721 0
      vertex 13.6779 53.2721 8
      vertex 10.306 54.0258 0
    endloop
  endfacet
  facet normal -0.218141 -0.975917 -0
    outer loop
      vertex 10.306 54.0258 8
      vertex 10.306 54.0258 0
      vertex 13.6779 53.2721 8
    endloop
  endfacet
  facet normal -0.279 -0.960291 0
    outer loop
      vertex 16.9959 52.3081 0
      vertex 16.9959 52.3081 8
      vertex 13.6779 53.2721 0
    endloop
  endfacet
  facet normal -0.279 -0.960291 -0
    outer loop
      vertex 13.6779 53.2721 8
      vertex 13.6779 53.2721 0
      vertex 16.9959 52.3081 8
    endloop
  endfacet
  facet normal -0.33873 -0.940884 0
    outer loop
      vertex 20.2469 51.1377 0
      vertex 20.2469 51.1377 8
      vertex 16.9959 52.3081 0
    endloop
  endfacet
  facet normal -0.33873 -0.940884 -0
    outer loop
      vertex 16.9959 52.3081 8
      vertex 16.9959 52.3081 0
      vertex 20.2469 51.1377 8
    endloop
  endfacet
  facet normal -0.397144 -0.917756 0
    outer loop
      vertex 23.4179 49.7655 0
      vertex 23.4179 49.7655 8
      vertex 20.2469 51.1377 0
    endloop
  endfacet
  facet normal -0.397144 -0.917756 -0
    outer loop
      vertex 20.2469 51.1377 8
      vertex 20.2469 51.1377 0
      vertex 23.4179 49.7655 8
    endloop
  endfacet
  facet normal -0.453985 -0.891009 0
    outer loop
      vertex 26.4965 48.1969 0
      vertex 26.4965 48.1969 8
      vertex 23.4179 49.7655 0
    endloop
  endfacet
  facet normal -0.453985 -0.891009 -0
    outer loop
      vertex 23.4179 49.7655 8
      vertex 23.4179 49.7655 0
      vertex 26.4965 48.1969 8
    endloop
  endfacet
  facet normal -0.509059 -0.860732 0
    outer loop
      vertex 29.4705 46.438 0
      vertex 29.4705 46.438 8
      vertex 26.4965 48.1969 0
    endloop
  endfacet
  facet normal -0.509059 -0.860732 -0
    outer loop
      vertex 26.4965 48.1969 8
      vertex 26.4965 48.1969 0
      vertex 29.4705 46.438 8
    endloop
  endfacet
  facet normal -0.562085 -0.827079 0
    outer loop
      vertex 32.3282 44.4959 0
      vertex 32.3282 44.4959 8
      vertex 29.4705 46.438 0
    endloop
  endfacet
  facet normal -0.562085 -0.827079 -0
    outer loop
      vertex 29.4705 46.438 8
      vertex 29.4705 46.438 0
      vertex 32.3282 44.4959 8
    endloop
  endfacet
  facet normal -0.61291 -0.790153 0
    outer loop
      vertex 35.0583 42.3782 0
      vertex 35.0583 42.3782 8
      vertex 32.3282 44.4959 0
    endloop
  endfacet
  facet normal -0.61291 -0.790153 -0
    outer loop
      vertex 32.3282 44.4959 8
      vertex 32.3282 44.4959 0
      vertex 35.0583 42.3782 8
    endloop
  endfacet
  facet normal -0.661299 -0.750122 0
    outer loop
      vertex 37.6501 40.0933 0
      vertex 37.6501 40.0933 8
      vertex 35.0583 42.3782 0
    endloop
  endfacet
  facet normal -0.661299 -0.750122 -0
    outer loop
      vertex 35.0583 42.3782 8
      vertex 35.0583 42.3782 0
      vertex 37.6501 40.0933 8
    endloop
  endfacet
  facet normal -0.707107 -0.707107 0
    outer loop
      vertex 40.0933 37.6501 0
      vertex 40.0933 37.6501 8
      vertex 37.6501 40.0933 0
    endloop
  endfacet
  facet normal -0.707107 -0.707107 -0
    outer loop
      vertex 37.6501 40.0933 8
      vertex 37.6501 40.0933 0
      vertex 40.0933 37.6501 8
    endloop
  endfacet
  facet normal -0.750122 -0.661299 0
    outer loop
      vertex 42.3782 35.0583 0
      vertex 42.3782 35.0583 8
      vertex 40.0933 37.6501 0
    endloop
  endfacet
  facet normal -0.750122 -0.661299 -0
    outer loop
      vertex 40.0933 37.6501 8
      vertex 40.0933 37.6501 0
      vertex 42.3782 35.0583 8
    endloop
  endfacet
  facet normal -0.790153 -0.61291 0
    outer loop
      vertex 44.4959 32.3282 0
      vertex 44.4959 32.3282 8
      vertex 42.3782 35.0583 0
    endloop
  endfacet
  facet normal -0.790153 -0.61291 -0
    outer loop
      vertex 42.3782 35.0583 8
      vertex 42.3782 35.0583 0
      vertex 44.4959 32.3282 8
    endloop
  endfacet
  facet normal -0.827079 -0.562085 0
    outer loop
      vertex 46.438 29.4705 0
      vertex 46.438 29.4705 8
      vertex 44.4959 32.3282 0
    endloop
  endfacet
  facet normal -0.827079 -0.562085 -0
    outer loop
      vertex 44.4959 32.3282 8
      vertex 44.4959 32.3282 0
      vertex 46.438 29.4705 8
    endloop
  endfacet
  facet normal -0.860732 -0.509059 0
    outer loop
      vertex 48.1969 26.4965 0
      vertex 48.1969 26.4965 8
      vertex 46.438 29.4705 0
    endloop
  endfacet
  facet normal -0.860732 -0.509059 -0
    outer loop
      vertex 46.438 29.4705 8
      vertex 46.438 29.4705 0
      vertex 48.1969 26.4965 8
    endloop
  endfacet
  facet normal -0.891009 -0.453985 0
    outer loop
      vertex 49.7655 23.4179 0
      vertex 49.7655 23.4179 8
      vertex 48.1969 26.4965 0
    endloop
  endfacet
  facet normal -0.891009 -0.453985 -0
    outer loop
      vertex 48.1969 26.4965 8
      vertex 48.1969 26.4965 0
      vertex 49.7655 23.4179 8
    endloop
  endfacet
  facet normal -0.917756 -0.397144 0
    outer loop
      vertex 51.1377 20.2469 0
      vertex 51.1377 20.2469 8
      vertex 49.7655 23.4179 0
    endloop
  endfacet
  facet normal -0.917756 -0.397144 -0
    outer loop
      vertex 49.7655 23.4179 8
      vertex 49.7655 23.4179 0
      vertex 51.1377 20.2469 8
    endloop
  endfacet
  facet normal -0.940884 -0.33873 0
    outer loop
      vertex 52.3081 16.9959 0
      vertex 52.3081 16.9959 8
      vertex 51.1377 20.2469 0
    endloop
  endfacet
  facet normal -0.940884 -0.33873 -0
    outer loop
      vertex 51.1377 20.2469 8
      vertex 51.1377 20.2469 0
      vertex 52.3081 16.9959 8
    endloop
  endfacet
  facet normal -0.960291 -0.279 0
    outer loop
      vertex 53.2721 13.6779 0
      vertex 53.2721 13.6779 8
      vertex 52.3081 16.9959 0
    endloop
  endfacet
  facet normal -0.960291 -0.279 -0
    outer loop
      vertex 52.3081 16.9959 8
      vertex 52.3081 16.9959 0
      vertex 53.2721 13.6779 8
    endloop
  endfacet
  facet normal -0.975917 -0.218141 0
    outer loop
      vertex 54.0258 10.306 0
      vertex 54.0258 10.306 8
      vertex 53.2721 13.6779 0
    endloop
  endfacet
  facet normal -0.975917 -0.218141 -0
    outer loop
      vertex 53.2721 13.6779 8
      vertex 53.2721 13.6779 0
      vertex 54.0258 10.306 8
    endloop
  endfacet
  facet normal -0.987689 -0.156431 0
    outer loop
      vertex 54.5663 6.89333 0
      vertex 54.5663 6.89333 8
      vertex 54.0258 10.306 0
    endloop
  endfacet
  facet normal -0.987689 -0.156431 -0
    outer loop
      vertex 54.0258 10.306 8
      vertex 54.0258 10.306 0
      vertex 54.5663 6.89333 8
    endloop
  endfacet
  facet normal -0.995561 -0.0941193 0
    outer loop
      vertex 54.8915 3.45348 0
      vertex 54.8915 3.45348 8
      vertex 54.5663 6.89333 0
    endloop
  endfacet
  facet normal -0.995561 -0.0941193 -0
    outer loop
      vertex 54.5663 6.89333 8
      vertex 54.5663 6.89333 0
      vertex 54.8915 3.45348 8
    endloop
  endfacet
  facet normal -0.999507 -0.0314021 0
    outer loop
      vertex 55 0 0
      vertex 55 0 8
      vertex 54.8915 3.45348 0
    endloop
  endfacet
  facet normal -0.999507 -0.0314021 -0
    outer loop
      vertex 54.8915 3.45348 8
      vertex 54.8915 3.45348 0
      vertex 55 0 8
    endloop
  endfacet
  facet normal -0.999507 0.0314021 0
    outer loop
      vertex 54.8915 -3.45348 0
      vertex 54.8915 -3.45348 8
      vertex 55 0 0
    endloop
  endfacet
  facet normal -0.999507 0.0314021 0
    outer loop
      vertex 55 0 8
      vertex 55 0 0
      vertex 54.8915 -3.45348 8
    endloop
  endfacet
  facet normal -0.995561 0.0941193 0
    outer loop
      vertex 54.5663 -6.89333 0
      vertex 54.5663 -6.89333 8
      vertex 54.8915 -3.45348 0
    endloop
  endfacet
  facet normal -0.995561 0.0941193 0
    outer loop
      vertex 54.8915 -3.45348 8
      vertex 54.8915 -3.45348 0
      vertex 54.5663 -6.89333 8
    endloop
  endfacet
  facet normal -0.987689 0.156431 0
    outer loop
      vertex 54.0258 -10.306 0
      vertex 54.0258 -10.306 8
      vertex 54.5663 -6.89333 0
    endloop
  endfacet
  facet normal -0.987689 0.156431 0
    outer loop
      vertex 54.5663 -6.89333 8
      vertex 54.5663 -6.89333 0
      vertex 54.0258 -10.306 8
    endloop
  endfacet
  facet normal -0.975917 0.218141 0
    outer loop
      vertex 53.2721 -13.6779 0
      vertex 53.2721 -13.6779 8
      vertex 54.0258 -10.306 0
    endloop
  endfacet
  facet normal -0.975917 0.218141 0
    outer loop
      vertex 54.0258 -10.306 8
      vertex 54.0258 -10.306 0
      vertex 53.2721 -13.6779 8
    endloop
  endfacet
  facet normal -0.960291 0.279 0
    outer loop
      vertex 52.3081 -16.9959 0
      vertex 52.3081 -16.9959 8
      vertex 53.2721 -13.6779 0
    endloop
  endfacet
  facet normal -0.960291 0.279 0
    outer loop
      vertex 53.2721 -13.6779 8
      vertex 53.2721 -13.6779 0
      vertex 52.3081 -16.9959 8
    endloop
  endfacet
  facet normal -0.940884 0.33873 0
    outer loop
      vertex 51.1377 -20.2469 0
      vertex 51.1377 -20.2469 8
      vertex 52.3081 -16.9959 0
    endloop
  endfacet
  facet normal -0.940884 0.33873 0
    outer loop
      vertex 52.3081 -16.9959 8
      vertex 52.3081 -16.9959 0
      vertex 51.1377 -20.2469 8
    endloop
  endfacet
  facet normal -0.917756 0.397144 0
    outer loop
      vertex 49.7655 -23.4179 0
      vertex 49.7655 -23.4179 8
      vertex 51.1377 -20.2469 0
    endloop
  endfacet
  facet normal -0.917756 0.397144 0
    outer loop
      vertex 51.1377 -20.2469 8
      vertex 51.1377 -20.2469 0
      vertex 49.7655 -23.4179 8
    endloop
  endfacet
  facet normal -0.891009 0.453985 0
    outer loop
      vertex 48.1969 -26.4965 0
      vertex 48.1969 -26.4965 8
      vertex 49.7655 -23.4179 0
    endloop
  endfacet
  facet normal -0.891009 0.453985 0
    outer loop
      vertex 49.7655 -23.4179 8
      vertex 49.7655 -23.4179 0
      vertex 48.1969 -26.4965 8
    endloop
  endfacet
  facet normal -0.860732 0.509059 0
    outer loop
      vertex 46.438 -29.4705 0
      vertex 46.438 -29.4705 8
      vertex 48.1969 -26.4965 0
    endloop
  endfacet
  facet normal -0.860732 0.509059 0
    outer loop
      vertex 48.1969 -26.4965 8
      vertex 48.1969 -26.4965 0
      vertex 46.438 -29.4705 8
    endloop
  endfacet
  facet normal -0.827079 0.562085 0
    outer loop
      vertex 44.4959 -32.3282 0
      vertex 44.4959 -32.3282 8
      vertex 46.438 -29.4705 0
    endloop
  endfacet
  facet normal -0.827079 0.562085 0
    outer loop
      vertex 46.438 -29.4705 8
      vertex 46.438 -29.4705 0
      vertex 44.4959 -32.3282 8
    endloop
  endfacet
  facet normal -0.790153 0.61291 0
    outer loop
      vertex 42.3782 -35.0583 0
      vertex 42.3782 -35.0583 8
      vertex 44.4959 -32.3282 0
    endloop
  endfacet
  facet normal -0.790153 0.61291 0
    outer loop
      vertex 44.4959 -32.3282 8
      vertex 44.4959 -32.3282 0
      vertex 42.3782 -35.0583 8
    endloop
  endfacet
  facet normal -0.750122 0.661299 0
    outer loop
      vertex 40.0933 -37.6501 0
      vertex 40.0933 -37.6501 8
      vertex 42.3782 -35.0583 0
    endloop
  endfacet
  facet normal -0.750122 0.661299 0
    outer loop
      vertex 42.3782 -35.0583 8
      vertex 42.3782 -35.0583 0
      vertex 40.0933 -37.6501 8
    endloop
  endfacet
  facet normal -0.707107 0.707107 0
    outer loop
      vertex 37.6501 -40.0933 0
      vertex 37.6501 -40.0933 8
      vertex 40.0933 -37.6501 0
    endloop
  endfacet
  facet normal -0.707107 0.707107 0
    outer loop
      vertex 40.0933 -37.6501 8
      vertex 40.0933 -37.6501 0
      vertex 37.6501 -40.0933 8
    endloop
  endfacet
  facet normal -0.661299 0.750122 0
    outer loop
      vertex 35.0583 -42.3782 0
      vertex 35.0583 -42.3782 8
      vertex 37.6501 -40.0933 0
    endloop
  endfacet
  facet normal -0.661299 0.750122 0
    outer loop
      vertex 37.6501 -40.0933 8
      vertex 37.6501 -40.0933 0
      vertex 35.0583 -42.3782 8
    endloop
  endfacet
  facet normal -0.61291 0.790153 0
    outer loop
      vertex 32.3282 -44.4959 0
      vertex 32.3282 -44.4959 8
      vertex 35.0583 -42.3782 0
    endloop
  endfacet
  facet normal -0.61291 0.790153 0
    outer loop
      vertex 35.0583 -42.3782 8
      vertex 35.0583 -42.3782 0
      vertex 32.3282 -44.4959 8
    endloop
  endfacet
  facet normal -0.562085 0.827079 0
    outer loop
      vertex 29.4705 -46.438 0
      vertex 29.4705 -46.438 8
      vertex 32.3282 -44.4959 0
    endloop
  endfacet
  facet normal -0.562085 0.827079 0
    outer loop
      vertex 32.3282 -44.4959 8
      vertex 32.3282 -44.4959 0
      vertex 29.4705 -46.438 8
    endloop
  endfacet
  facet normal -0.509059 0.860732 0
    outer loop
      vertex 26.4965 -48.1969 0
      vertex 26.4965 -48.1969 8
      vertex 29.4705 -46.438 0
    endloop
  endfacet
  facet normal -0.509059 0.860732 0
    outer loop
      vertex 29.4705 -46.438 8
      vertex 29.4705 -46.438 0
      vertex 26.4965 -48.1969 8
    endloop
  endfacet
  facet normal -0.453985 0.891009 0
    outer loop
      vertex 23.4179 -49.7655 0
      vertex 23.4179 -49.7655 8
      vertex 26.4965 -48.1969 0
    endloop
  endfacet
  facet normal -0.453985 0.891009 0
    outer loop
      vertex 26.4965 -48.1969 8
      vertex 26.4965 -48.1969 0
      vertex 23.4179 -49.7655 8
    endloop
  endfacet
  facet normal -0.397144 0.917756 0
    outer loop
      vertex 20.2469 -51.1377 0
      vertex 20.2469 -51.1377 8
      vertex 23.4179 -49.7655 0
    endloop
  endfacet
  facet normal -0.397144 0.917756 0
    outer loop
      vertex 23.4179 -49.7655 8
      vertex 23.4179 -49.7655 0
      vertex 20.2469 -51.1377 8
    endloop
  endfacet
  facet normal -0.33873 0.940884 0
    outer loop
      vertex 16.9959 -52.3081 0
      vertex 16.9959 -52.3081 8
      vertex 20.2469 -51.1377 0
    endloop
  endfacet
  facet normal -0.33873 0.940884 0
    outer loop
      vertex 20.2469 -51.1377 8
      vertex 20.2469 -51.1377 0
      vertex 16.9959 -52.3081 8
    endloop
  endfacet
  facet normal -0.279 0.960291 0
    outer loop
      vertex 13.6779 -53.2721 0
      vertex 13.6779 -53.2721 8
      vertex 16.9959 -52.3081 0
    endloop
  endfacet
  facet normal -0.279 0.960291 0
    outer loop
      vertex 16.9959 -52.3081 8
      vertex 16.9959 -52.3081 0
      vertex 13.6779 -53.2721 8
    endloop
  endfacet
  facet normal -0.218141 0.975917 0
    outer loop
      vertex 10.306 -54.0258 0
      vertex 10.306 -54.0258 8
      vertex 13.6779 -53.2721 0
    endloop
  endfacet
  facet normal -0.218141 0.975917 0
    outer loop
      vertex 13.6779 -53.2721 8
      vertex 13.6779 -53.2721 0
      vertex 10.306 -54.0258 8
    endloop
  endfacet
  facet normal -0.156431 0.987689 0
    outer loop
      vertex 6.89333 -54.5663 0
      vertex 6.89333 -54.5663 8
      vertex 10.306 -54.0258 0
    endloop
  endfacet
  facet normal -0.156431 0.987689 0
    outer loop
      vertex 10.306 -54.0258 8
      vertex 10.306 -54.0258 0
      vertex 6.89333 -54.5663 8
    endloop
  endfacet
  facet normal -0.0941193 0.995561 0
    outer loop
      vertex 3.45348 -54.8915 0
      vertex 3.45348 -54.8915 8
      vertex 6.89333 -54.5663 0
    endloop
  endfacet
  facet normal -0.0941193 0.995561 0
    outer loop
      vertex 6.89333 -54.5663 8
      vertex 6.89333 -54.5663 0
      vertex 3.45348 -54.8915 8
    endloop
  endfacet
  facet normal -0.0314021 0.999507 0
    outer loop
      vertex 0 -55 0
      vertex 0 -55 8
      vertex 3.45348 -54.8915 0
    endloop
  endfacet
  facet normal -0.0314021 0.999507 0
    outer loop
      vertex 3.45348 -54.8915 8
      vertex 3.45348 -54.8915 0
      vertex 0 -55 8
    endloop
  endfacet
  facet normal 0.0314021 0.999507 -0
    outer loop
      vertex -3.45348 -54.8915 0
      vertex -3.45348 -54.8915 8
      vertex 0 -55 0
    endloop
  endfacet
  facet normal 0.0314021 0.999507 0
    outer loop
      vertex 0 -55 8
      vertex 0 -55 0
      vertex -3.45348 -54.8915 8
    endloop
  endfacet
  facet normal 0 -0 1
    outer loop
      vertex -35.0583 42.3782 8
      vertex -32.3282 44.4959 8
      vertex -325 325 8
    endloop
  endfacet
  facet normal -0 0 1
    outer loop
      vertex 42.3782 35.0583 8
      vertex 44.4959 32.3282 8
      vertex 325 325 8
    endloop
  endfacet
  facet normal 0 0 1
    outer loop
      vertex 3.45348 -54.8915 8
      vertex 0 -55 8
      vertex 325 -325 8
    endloop
  endfacet
  facet normal 0 0 1
    outer loop
      vertex -325 -325 8
      vertex 325 -325 8
      vertex 0 -55 8
    endloop
  endfacet
  facet normal 0 0 1
    outer loop
      vertex -325 -325 8
      vertex 0 -55 8
      vertex -3.45348 -54.8915 8
    endloop
  endfacet
  facet normal 0 0 1
    outer loop
      vertex -325 -325 8
      vertex -3.45348 -54.8915 8
      vertex -6.89333 -54.5663 8
    endloop
  endfacet
  facet normal 0 0 1
    outer loop
      vertex -325 -325 8
      vertex -6.89333 -54.5663 8
      vertex -10.306 -54.0258 8
    endloop
  endfacet
  facet normal 0 0 1
    outer loop
      vertex -325 -325 8
      vertex -10.306 -54.0258 8
      vertex -13.6779 -53.2721 8
    endloop
  endfacet
  facet normal 0 0 1
    outer loop
      vertex -325 -325 8
      vertex -13.6779 -53.2721 8
      vertex -16.9959 -52.3081 8
    endloop
  endfacet
  facet normal 0 0 1
    outer loop
      vertex -325 -325 8
      vertex -16.9959 -52.3081 8
      vertex -20.2469 -51.1377 8
    endloop
  endfacet
  facet normal 0 0 1
    outer loop
      vertex -325 -325 8
      vertex -20.2469 -51.1377 8
      vertex -23.4179 -49.7655 8
    endloop
  endfacet
  facet normal 0 0 1
    outer loop
      vertex -325 -325 8
      vertex -23.4179 -49.7655 8
      vertex -26.4965 -48.1969 8
    endloop
  endfacet
  facet normal 0 0 1
    outer loop
      vertex -325 -325 8
      vertex -26.4965 -48.1969 8
      vertex -29.4705 -46.438 8
    endloop
  endfacet
  facet normal 0 0 1
    outer loop
      vertex -325 -325 8
      vertex -29.4705 -46.438 8
      vertex -32.3282 -44.4959 8
    endloop
  endfacet
  facet normal 0 0 1
    outer loop
      vertex -325 -325 8
      vertex -32.3282 -44.4959 8
      vertex -35.0583 -42.3782 8
    endloop
  endfacet
  facet normal 0 0 1
    outer loop
      vertex -325 -325 8
      vertex -35.0583 -42.3782 8
      vertex -37.6501 -40.0933 8
    endloop
  endfacet
  facet normal 0 0 1
    outer loop
      vertex -325 -325 8
      vertex -37.6501 -40.0933 8
      vertex -40.0933 -37.6501 8
    endloop
  endfacet
  facet normal 0 0 1
    outer loop
      vertex -325 -325 8
      vertex -42.3782 -35.0583 8
      vertex -44.4959 -32.3282 8
    endloop
  endfacet
  facet normal 0 0 1
    outer loop
      vertex -325 -325 8
      vertex -40.0933 -37.6501 8
      vertex -42.3782 -35.0583 8
    endloop
  endfacet
  facet normal 0 0 1
    outer loop
      vertex -325 -325 8
      vertex -44.4959 -32.3282 8
      vertex -46.438 -29.4705 8
    endloop
  endfacet
  facet normal 0 0 1
    outer loop
      vertex -325 -325 8
      vertex -46.438 -29.4705 8
      vertex -48.1969 -26.4965 8
    endloop
  endfacet
  facet normal 0 0 1
    outer loop
      vertex -325 -325 8
      vertex -48.1969 -26.4965 8
      vertex -49.7655 -23.4179 8
    endloop
  endfacet
  facet normal 0 0 1
    outer loop
      vertex -325 -325 8
      vertex -49.7655 -23.4179 8
      vertex -51.1377 -20.2469 8
    endloop
  endfacet
  facet normal 0 0 1
    outer loop
      vertex -325 -325 8
      vertex -51.1377 -20.2469 8
      vertex -52.3081 -16.9959 8
    endloop
  endfacet
  facet normal 0 0 1
    outer loop
      vertex -325 -325 8
      vertex -52.3081 -16.9959 8
      vertex -53.2721 -13.6779 8
    endloop
  endfacet
  facet normal 0 0 1
    outer loop
      vertex -325 -325 8
      vertex -53.2721 -13.6779 8
      vertex -54.0258 -10.306 8
    endloop
  endfacet
  facet normal 0 0 1
    outer loop
      vertex -325 -325 8
      vertex -54.0258 -10.306 8
      vertex -54.5663 -6.89333 8
    endloop
  endfacet
  facet normal 0 0 1
    outer loop
      vertex -325 -325 8
      vertex -54.5663 -6.89333 8
      vertex -54.8915 -3.45348 8
    endloop
  endfacet
  facet normal 0 0 1
    outer loop
      vertex -325 -325 8
      vertex -54.8915 -3.45348 8
      vertex -55 0 8
    endloop
  endfacet
  facet normal 0 0 1
    outer loop
      vertex -325 -325 8
      vertex -55 0 8
      vertex -325 325 8
    endloop
  endfacet
  facet normal 0 -0 1
    outer loop
      vertex -55 0 8
      vertex -54.8915 3.45348 8
      vertex -325 325 8
    endloop
  endfacet
  facet normal 0 -0 1
    outer loop
      vertex -54.8915 3.45348 8
      vertex -54.5663 6.89333 8
      vertex -325 325 8
    endloop
  endfacet
  facet normal 0 -0 1
    outer loop
      vertex -54.5663 6.89333 8
      vertex -54.0258 10.306 8
      vertex -325 325 8
    endloop
  endfacet
  facet normal 0 -0 1
    outer loop
      vertex -54.0258 10.306 8
      vertex -53.2721 13.6779 8
      vertex -325 325 8
    endloop
  endfacet
  facet normal 0 -0 1
    outer loop
      vertex -53.2721 13.6779 8
      vertex -52.3081 16.9959 8
      vertex -325 325 8
    endloop
  endfacet
  facet normal 0 -0 1
    outer loop
      vertex -52.3081 16.9959 8
      vertex -51.1377 20.2469 8
      vertex -325 325 8
    endloop
  endfacet
  facet normal 0 -0 1
    outer loop
      vertex -51.1377 20.2469 8
      vertex -49.7655 23.4179 8
      vertex -325 325 8
    endloop
  endfacet
  facet normal 0 -0 1
    outer loop
      vertex -49.7655 23.4179 8
      vertex -48.1969 26.4965 8
      vertex -325 325 8
    endloop
  endfacet
  facet normal 0 -0 1
    outer loop
      vertex -48.1969 26.4965 8
      vertex -46.438 29.4705 8
      vertex -325 325 8
    endloop
  endfacet
  facet normal 0 -0 1
    outer loop
      vertex -46.438 29.4705 8
      vertex -44.4959 32.3282 8
      vertex -325 325 8
    endloop
  endfacet
  facet normal 0 -0 1
    outer loop
      vertex -44.4959 32.3282 8
      vertex -42.3782 35.0583 8
      vertex -325 325 8
    endloop
  endfacet
  facet normal 0 -0 1
    outer loop
      vertex -42.3782 35.0583 8
      vertex -40.0933 37.6501 8
      vertex -325 325 8
    endloop
  endfacet
  facet normal 0 -0 1
    outer loop
      vertex -40.0933 37.6501 8
      vertex -37.6501 40.0933 8
      vertex -325 325 8
    endloop
  endfacet
  facet normal 0 -0 1
    outer loop
      vertex -37.6501 40.0933 8
      vertex -35.0583 42.3782 8
      vertex -325 325 8
    endloop
  endfacet
  facet normal 0 0 1
    outer loop
      vertex -325 325 8
      vertex -32.3282 44.4959 8
      vertex -29.4705 46.438 8
    endloop
  endfacet
  facet normal 0 0 1
    outer loop
      vertex -325 325 8
      vertex -29.4705 46.438 8
      vertex -26.4965 48.1969 8
    endloop
  endfacet
  facet normal 0 0 1
    outer loop
      vertex -325 325 8
      vertex -26.4965 48.1969 8
      vertex -23.4179 49.7655 8
    endloop
  endfacet
  facet normal 0 0 1
    outer loop
      vertex -325 325 8
      vertex -23.4179 49.7655 8
      vertex -20.2469 51.1377 8
    endloop
  endfacet
  facet normal 0 0 1
    outer loop
      vertex -325 325 8
      vertex -20.2469 51.1377 8
      vertex -16.9959 52.3081 8
    endloop
  endfacet
  facet normal 0 0 1
    outer loop
      vertex -325 325 8
      vertex -16.9959 52.3081 8
      vertex -13.6779 53.2721 8
    endloop
  endfacet
  facet normal 0 0 1
    outer loop
      vertex -325 325 8
      vertex -13.6779 53.2721 8
      vertex -10.306 54.0258 8
    endloop
  endfacet
  facet normal 0 0 1
    outer loop
      vertex -325 325 8
      vertex -10.306 54.0258 8
      vertex -6.89333 54.5663 8
    endloop
  endfacet
  facet normal 0 0 1
    outer loop
      vertex -325 325 8
      vertex -6.89333 54.5663 8
      vertex -3.45348 54.8915 8
    endloop
  endfacet
  facet normal 0 0 1
    outer loop
      vertex -325 325 8
      vertex -3.45348 54.8915 8
      vertex 0 55 8
    endloop
  endfacet
  facet normal -0 0 1
    outer loop
      vertex -325 325 8
      vertex 0 55 8
      vertex 325 325 8
    endloop
  endfacet
  facet normal -0 0 1
    outer loop
      vertex 0 55 8
      vertex 3.45348 54.8915 8
      vertex 325 325 8
    endloop
  endfacet
  facet normal -0 0 1
    outer loop
      vertex 3.45348 54.8915 8
      vertex 6.89333 54.5663 8
      vertex 325 325 8
    endloop
  endfacet
  facet normal -0 0 1
    outer loop
      vertex 6.89333 54.5663 8
      vertex 10.306 54.0258 8
      vertex 325 325 8
    endloop
  endfacet
  facet normal -0 0 1
    outer loop
      vertex 10.306 54.0258 8
      vertex 13.6779 53.2721 8
      vertex 325 325 8
    endloop
  endfacet
  facet normal -0 0 1
    outer loop
      vertex 13.6779 53.2721 8
      vertex 16.9959 52.3081 8
      vertex 325 325 8
    endloop
  endfacet
  facet normal -0 0 1
    outer loop
      vertex 16.9959 52.3081 8
      vertex 20.2469 51.1377 8
      vertex 325 325 8
    endloop
  endfacet
  facet normal -0 0 1
    outer loop
      vertex 20.2469 51.1377 8
      vertex 23.4179 49.7655 8
      vertex 325 325 8
    endloop
  endfacet
  facet normal -0 0 1
    outer loop
      vertex 23.4179 49.7655 8
      vertex 26.4965 48.1969 8
      vertex 325 325 8
    endloop
  endfacet
  facet normal -0 0 1
    outer loop
      vertex 26.4965 48.1969 8
      vertex 29.4705 46.438 8
      vertex 325 325 8
    endloop
  endfacet
  facet normal -0 0 1
    outer loop
      vertex 29.4705 46.438 8
      vertex 32.3282 44.4959 8
      vertex 325 325 8
    endloop
  endfacet
  facet normal -0 0 1
    outer loop
      vertex 32.3282 44.4959 8
      vertex 35.0583 42.3782 8
      vertex 325 325 8
    endloop
  endfacet
  facet normal -0 0 1
    outer loop
      vertex 35.0583 42.3782 8
      vertex 37.6501 40.0933 8
      vertex 325 325 8
    endloop
  endfacet
  facet normal -0 0 1
    outer loop
      vertex 37.6501 40.0933 8
      vertex 40.0933 37.6501 8
      vertex 325 325 8
    endloop
  endfacet
  facet normal -0 0 1
    outer loop
      vertex 40.0933 37.6501 8
      vertex 42.3782 35.0583 8
      vertex 325 325 8
    endloop
  endfacet
  facet normal 0 0 1
    outer loop
      vertex 325 325 8
      vertex 44.4959 32.3282 8
      vertex 46.438 29.4705 8
    endloop
  endfacet
  facet normal 0 0 1
    outer loop
      vertex 325 325 8
      vertex 46.438 29.4705 8
      vertex 48.1969 26.4965 8
    endloop
  endfacet
  facet normal 0 0 1
    outer loop
      vertex 325 325 8
      vertex 48.1969 26.4965 8
      vertex 49.7655 23.4179 8
    endloop
  endfacet
  facet normal 0 0 1
    outer loop
      vertex 325 325 8
      vertex 49.7655 23.4179 8
      vertex 51.1377 20.2469 8
    endloop
  endfacet
  facet normal 0 0 1
    outer loop
      vertex 325 325 8
      vertex 51.1377 20.2469 8
      vertex 52.3081 16.9959 8
    endloop
  endfacet
  facet normal 0 0 1
    outer loop
      vertex 325 325 8
      vertex 52.3081 16.9959 8
      vertex 53.2721 13.6779 8
    endloop
  endfacet
  facet normal 0 0 1
    outer loop
      vertex 325 325 8
      vertex 53.2721 13.6779 8
      vertex 54.0258 10.306 8
    endloop
  endfacet
  facet normal 0 0 1
    outer loop
      vertex 325 325 8
      vertex 54.0258 10.306 8
      vertex 54.5663 6.89333 8
    endloop
  endfacet
  facet normal 0 0 1
    outer loop
      vertex 325 325 8
      vertex 54.5663 6.89333 8
      vertex 54.8915 3.45348 8
    endloop
  endfacet
  facet normal 0 0 1
    outer loop
      vertex 325 325 8
      vertex 54.8915 3.45348 8
      vertex 55 0 8
    endloop
  endfacet
  facet normal 0 0 1
    outer loop
      vertex 325 325 8
      vertex 55 0 8
      vertex 325 -325 8
    endloop
  endfacet
  facet normal 0 0 1
    outer loop
      vertex 55 0 8
      vertex 54.8915 -3.45348 8
      vertex 325 -325 8
    endloop
  endfacet
  facet normal 0 0 1
    outer loop
      vertex 54.8915 -3.45348 8
      vertex 54.5663 -6.89333 8
      vertex 325 -325 8
    endloop
  endfacet
  facet normal 0 0 1
    outer loop
      vertex 54.5663 -6.89333 8
      vertex 54.0258 -10.306 8
      vertex 325 -325 8
    endloop
  endfacet
  facet normal 0 0 1
    outer loop
      vertex 54.0258 -10.306 8
      vertex 53.2721 -13.6779 8
      vertex 325 -325 8
    endloop
  endfacet
  facet normal 0 0 1
    outer loop
      vertex 53.2721 -13.6779 8
      vertex 52.3081 -16.9959 8
      vertex 325 -325 8
    endloop
  endfacet
  facet normal 0 0 1
    outer loop
      vertex 52.3081 -16.9959 8
      vertex 51.1377 -20.2469 8
      vertex 325 -325 8
    endloop
  endfacet
  facet normal 0 0 1
    outer loop
      vertex 51.1377 -20.2469 8
      vertex 49.7655 -23.4179 8
      vertex 325 -325 8
    endloop
  endfacet
  facet normal 0 0 1
    outer loop
      vertex 49.7655 -23.4179 8
      vertex 48.1969 -26.4965 8
      vertex 325 -325 8
    endloop
  endfacet
  facet normal 0 0 1
    outer loop
      vertex 48.1969 -26.4965 8
      vertex 46.438 -29.4705 8
      vertex 325 -325 8
    endloop
  endfacet
  facet normal 0 0 1
    outer loop
      vertex 46.438 -29.4705 8
      vertex 44.4959 -32.3282 8
      vertex 325 -325 8
    endloop
  endfacet
  facet normal 0 0 1
    outer loop
      vertex 44.4959 -32.3282 8
      vertex 42.3782 -35.0583 8
      vertex 325 -325 8
    endloop
  endfacet
  facet normal 0 0 1
    outer loop
      vertex 42.3782 -35.0583 8
      vertex 40.0933 -37.6501 8
      vertex 325 -325 8
    endloop
  endfacet
  facet normal 0 0 1
    outer loop
      vertex 40.0933 -37.6501 8
      vertex 37.6501 -40.0933 8
      vertex 325 -325 8
    endloop
  endfacet
  facet normal 0 0 1
    outer loop
      vertex 37.6501 -40.0933 8
      vertex 35.0583 -42.3782 8
      vertex 325 -325 8
    endloop
  endfacet
  facet normal 0 0 1
    outer loop
      vertex 35.0583 -42.3782 8
      vertex 32.3282 -44.4959 8
      vertex 325 -325 8
    endloop
  endfacet
  facet normal 0 0 1
    outer loop
      vertex 32.3282 -44.4959 8
      vertex 29.4705 -46.438 8
      vertex 325 -325 8
    endloop
  endfacet
  facet normal 0 0 1
    outer loop
      vertex 29.4705 -46.438 8
      vertex 26.4965 -48.1969 8
      vertex 325 -325 8
    endloop
  endfacet
  facet normal 0 0 1
    outer loop
      vertex 26.4965 -48.1969 8
      vertex 23.4179 -49.7655 8
      vertex 325 -325 8
    endloop
  endfacet
  facet normal 0 0 1
    outer loop
      vertex 23.4179 -49.7655 8
      vertex 20.2469 -51.1377 8
      vertex 325 -325 8
    endloop
  endfacet
  facet normal 0 0 1
    outer loop
      vertex 20.2469 -51.1377 8
      vertex 16.9959 -52.3081 8
      vertex 325 -325 8
    endloop
  endfacet
  facet normal 0 0 1
    outer loop
      vertex 16.9959 -52.3081 8
      vertex 13.6779 -53.2721 8
      vertex 325 -325 8
    endloop
  endfacet
  facet normal 0 0 1
    outer loop
      vertex 13.6779 -53.2721 8
      vertex 10.306 -54.0258 8
      vertex 325 -325 8
    endloop
  endfacet
  facet normal 0 0 1
    outer loop
      vertex 10.306 -54.0258 8
      vertex 6.89333 -54.5663 8
      vertex 325 -325 8
    endloop
  endfacet
  facet normal 0 0 1
    outer loop
      vertex 6.89333 -54.5663 8
      vertex 3.45348 -54.8915 8
      vertex 325 -325 8
    endloop
  endfacet
endsolid OpenSCAD_Model
